ISO-10303-21;
HEADER;
/* Generated by software containing ST-Developer
 * from STEP Tools, Inc. (www.steptools.com) 
 */
/* OPTION: using custom renumber hook */

FILE_DESCRIPTION(
/* description */ ('STEP AP242 Edition 2',
'CAx-IF Rec.Pracs.---Representation and Presentation of Product Manufa
cturing Information (PMI)---4.0---2014-10-13',
'CAx-IF Rec.Pracs.---3D Tessellated Geometry---0.4---2014-09-14','2;1',
'CAx-IF Rec.Pracs.---User Defined Attributes---1.5---2016-08-15'),
/* implementation_level */ '2;1');

FILE_NAME(
/* name */ 'mounting plate - Part 55',
/* time_stamp */ '2026-05-22T06:24:51Z',
/* author */ (''),
/* organization */ (''),
/* preprocessor_version */ 'ST-DEVELOPER v20',
/* originating_system */ 'ONSHAPE BY PTC INC, 1.215',
/* authorisation */ '  ');

FILE_SCHEMA (('AP242_MANAGED_MODEL_BASED_3D_ENGINEERING_MIM_LF { 1 0 10303 442 3 1 4 }'));
ENDSEC;

DATA;
#10=SHAPE_REPRESENTATION_RELATIONSHIP('','',#1437,#11);
#11=ADVANCED_BREP_SHAPE_REPRESENTATION('',(#1435),#2365);
#12=LINE('',#2020,#140);
#13=LINE('',#2023,#141);
#14=LINE('',#2025,#142);
#15=LINE('',#2027,#143);
#16=LINE('',#2029,#144);
#17=LINE('',#2031,#145);
#18=LINE('',#2032,#146);
#19=LINE('',#2035,#147);
#20=LINE('',#2037,#148);
#21=LINE('',#2039,#149);
#22=LINE('',#2041,#150);
#23=LINE('',#2043,#151);
#24=LINE('',#2044,#152);
#25=LINE('',#2047,#153);
#26=LINE('',#2049,#154);
#27=LINE('',#2051,#155);
#28=LINE('',#2053,#156);
#29=LINE('',#2055,#157);
#30=LINE('',#2056,#158);
#31=LINE('',#2059,#159);
#32=LINE('',#2061,#160);
#33=LINE('',#2063,#161);
#34=LINE('',#2065,#162);
#35=LINE('',#2067,#163);
#36=LINE('',#2068,#164);
#37=LINE('',#2071,#165);
#38=LINE('',#2073,#166);
#39=LINE('',#2075,#167);
#40=LINE('',#2077,#168);
#41=LINE('',#2079,#169);
#42=LINE('',#2080,#170);
#43=LINE('',#2083,#171);
#44=LINE('',#2085,#172);
#45=LINE('',#2087,#173);
#46=LINE('',#2089,#174);
#47=LINE('',#2091,#175);
#48=LINE('',#2092,#176);
#49=LINE('',#2097,#177);
#50=LINE('',#2101,#178);
#51=LINE('',#2105,#179);
#52=LINE('',#2109,#180);
#53=LINE('',#2112,#181);
#54=LINE('',#2113,#182);
#55=LINE('',#2117,#183);
#56=LINE('',#2119,#184);
#57=LINE('',#2121,#185);
#58=LINE('',#2123,#186);
#59=LINE('',#2127,#187);
#60=LINE('',#2131,#188);
#61=LINE('',#2134,#189);
#62=LINE('',#2135,#190);
#63=LINE('',#2139,#191);
#64=LINE('',#2141,#192);
#65=LINE('',#2145,#193);
#66=LINE('',#2147,#194);
#67=LINE('',#2149,#195);
#68=LINE('',#2211,#196);
#69=LINE('',#2214,#197);
#70=LINE('',#2216,#198);
#71=LINE('',#2218,#199);
#72=LINE('',#2220,#200);
#73=LINE('',#2222,#201);
#74=LINE('',#2224,#202);
#75=LINE('',#2225,#203);
#76=LINE('',#2227,#204);
#77=LINE('',#2229,#205);
#78=LINE('',#2231,#206);
#79=LINE('',#2233,#207);
#80=LINE('',#2236,#208);
#81=LINE('',#2239,#209);
#82=LINE('',#2241,#210);
#83=LINE('',#2243,#211);
#84=LINE('',#2245,#212);
#85=LINE('',#2247,#213);
#86=LINE('',#2249,#214);
#87=LINE('',#2250,#215);
#88=LINE('',#2252,#216);
#89=LINE('',#2254,#217);
#90=LINE('',#2256,#218);
#91=LINE('',#2258,#219);
#92=LINE('',#2261,#220);
#93=LINE('',#2264,#221);
#94=LINE('',#2266,#222);
#95=LINE('',#2268,#223);
#96=LINE('',#2270,#224);
#97=LINE('',#2272,#225);
#98=LINE('',#2274,#226);
#99=LINE('',#2275,#227);
#100=LINE('',#2277,#228);
#101=LINE('',#2279,#229);
#102=LINE('',#2281,#230);
#103=LINE('',#2283,#231);
#104=LINE('',#2286,#232);
#105=LINE('',#2289,#233);
#106=LINE('',#2291,#234);
#107=LINE('',#2293,#235);
#108=LINE('',#2295,#236);
#109=LINE('',#2297,#237);
#110=LINE('',#2299,#238);
#111=LINE('',#2300,#239);
#112=LINE('',#2302,#240);
#113=LINE('',#2304,#241);
#114=LINE('',#2306,#242);
#115=LINE('',#2308,#243);
#116=LINE('',#2311,#244);
#117=LINE('',#2314,#245);
#118=LINE('',#2316,#246);
#119=LINE('',#2318,#247);
#120=LINE('',#2320,#248);
#121=LINE('',#2322,#249);
#122=LINE('',#2324,#250);
#123=LINE('',#2325,#251);
#124=LINE('',#2327,#252);
#125=LINE('',#2329,#253);
#126=LINE('',#2331,#254);
#127=LINE('',#2333,#255);
#128=LINE('',#2336,#256);
#129=LINE('',#2339,#257);
#130=LINE('',#2341,#258);
#131=LINE('',#2343,#259);
#132=LINE('',#2345,#260);
#133=LINE('',#2347,#261);
#134=LINE('',#2349,#262);
#135=LINE('',#2350,#263);
#136=LINE('',#2352,#264);
#137=LINE('',#2354,#265);
#138=LINE('',#2356,#266);
#139=LINE('',#2358,#267);
#140=VECTOR('',#1633,1.);
#141=VECTOR('',#1634,1.);
#142=VECTOR('',#1635,1.);
#143=VECTOR('',#1636,1.);
#144=VECTOR('',#1637,1.);
#145=VECTOR('',#1638,1.);
#146=VECTOR('',#1639,1.);
#147=VECTOR('',#1640,1.);
#148=VECTOR('',#1641,1.);
#149=VECTOR('',#1642,1.);
#150=VECTOR('',#1643,1.);
#151=VECTOR('',#1644,1.);
#152=VECTOR('',#1645,1.);
#153=VECTOR('',#1646,1.);
#154=VECTOR('',#1647,1.);
#155=VECTOR('',#1648,1.);
#156=VECTOR('',#1649,1.);
#157=VECTOR('',#1650,1.);
#158=VECTOR('',#1651,1.);
#159=VECTOR('',#1652,1.);
#160=VECTOR('',#1653,1.);
#161=VECTOR('',#1654,1.);
#162=VECTOR('',#1655,1.);
#163=VECTOR('',#1656,1.);
#164=VECTOR('',#1657,1.);
#165=VECTOR('',#1658,1.);
#166=VECTOR('',#1659,1.);
#167=VECTOR('',#1660,1.);
#168=VECTOR('',#1661,1.);
#169=VECTOR('',#1662,1.);
#170=VECTOR('',#1663,1.);
#171=VECTOR('',#1664,1.);
#172=VECTOR('',#1665,1.);
#173=VECTOR('',#1666,1.);
#174=VECTOR('',#1667,1.);
#175=VECTOR('',#1668,1.);
#176=VECTOR('',#1669,1.);
#177=VECTOR('',#1672,1.);
#178=VECTOR('',#1675,1.);
#179=VECTOR('',#1678,1.);
#180=VECTOR('',#1683,1.);
#181=VECTOR('',#1684,1.);
#182=VECTOR('',#1685,1.);
#183=VECTOR('',#1690,1.);
#184=VECTOR('',#1693,1.);
#185=VECTOR('',#1694,1.);
#186=VECTOR('',#1695,1.);
#187=VECTOR('',#1700,1.);
#188=VECTOR('',#1705,1.);
#189=VECTOR('',#1706,1.);
#190=VECTOR('',#1707,1.);
#191=VECTOR('',#1712,1.);
#192=VECTOR('',#1715,1.);
#193=VECTOR('',#1720,1.);
#194=VECTOR('',#1721,1.);
#195=VECTOR('',#1722,1.);
#196=VECTOR('',#1809,1.);
#197=VECTOR('',#1810,1.);
#198=VECTOR('',#1811,1.);
#199=VECTOR('',#1812,1.);
#200=VECTOR('',#1813,1.);
#201=VECTOR('',#1814,1.);
#202=VECTOR('',#1817,1.);
#203=VECTOR('',#1818,1.);
#204=VECTOR('',#1821,1.);
#205=VECTOR('',#1824,1.);
#206=VECTOR('',#1827,1.);
#207=VECTOR('',#1830,1.);
#208=VECTOR('',#1835,1.);
#209=VECTOR('',#1836,1.);
#210=VECTOR('',#1837,1.);
#211=VECTOR('',#1838,1.);
#212=VECTOR('',#1839,1.);
#213=VECTOR('',#1840,1.);
#214=VECTOR('',#1843,1.);
#215=VECTOR('',#1844,1.);
#216=VECTOR('',#1847,1.);
#217=VECTOR('',#1850,1.);
#218=VECTOR('',#1853,1.);
#219=VECTOR('',#1856,1.);
#220=VECTOR('',#1861,1.);
#221=VECTOR('',#1862,1.);
#222=VECTOR('',#1863,1.);
#223=VECTOR('',#1864,1.);
#224=VECTOR('',#1865,1.);
#225=VECTOR('',#1866,1.);
#226=VECTOR('',#1869,1.);
#227=VECTOR('',#1870,1.);
#228=VECTOR('',#1873,1.);
#229=VECTOR('',#1876,1.);
#230=VECTOR('',#1879,1.);
#231=VECTOR('',#1882,1.);
#232=VECTOR('',#1887,1.);
#233=VECTOR('',#1888,1.);
#234=VECTOR('',#1889,1.);
#235=VECTOR('',#1890,1.);
#236=VECTOR('',#1891,1.);
#237=VECTOR('',#1892,1.);
#238=VECTOR('',#1895,1.);
#239=VECTOR('',#1896,1.);
#240=VECTOR('',#1899,1.);
#241=VECTOR('',#1902,1.);
#242=VECTOR('',#1905,1.);
#243=VECTOR('',#1908,1.);
#244=VECTOR('',#1913,1.);
#245=VECTOR('',#1914,1.);
#246=VECTOR('',#1915,1.);
#247=VECTOR('',#1916,1.);
#248=VECTOR('',#1917,1.);
#249=VECTOR('',#1918,1.);
#250=VECTOR('',#1921,1.);
#251=VECTOR('',#1922,1.);
#252=VECTOR('',#1925,1.);
#253=VECTOR('',#1928,1.);
#254=VECTOR('',#1931,1.);
#255=VECTOR('',#1934,1.);
#256=VECTOR('',#1939,1.);
#257=VECTOR('',#1940,1.);
#258=VECTOR('',#1941,1.);
#259=VECTOR('',#1942,1.);
#260=VECTOR('',#1943,1.);
#261=VECTOR('',#1944,1.);
#262=VECTOR('',#1947,1.);
#263=VECTOR('',#1948,1.);
#264=VECTOR('',#1951,1.);
#265=VECTOR('',#1954,1.);
#266=VECTOR('',#1957,1.);
#267=VECTOR('',#1960,1.);
#268=PLANE('',#1460);
#269=PLANE('',#1461);
#270=PLANE('',#1463);
#271=PLANE('',#1472);
#272=PLANE('',#1475);
#273=PLANE('',#1479);
#274=PLANE('',#1484);
#275=PLANE('',#1485);
#276=PLANE('',#1496);
#277=PLANE('',#1500);
#278=PLANE('',#1504);
#279=PLANE('',#1506);
#280=PLANE('',#1508);
#281=PLANE('',#1511);
#282=PLANE('',#1514);
#283=PLANE('',#1517);
#284=PLANE('',#1522);
#285=PLANE('',#1524);
#286=PLANE('',#1527);
#287=PLANE('',#1528);
#288=PLANE('',#1529);
#289=PLANE('',#1530);
#290=PLANE('',#1531);
#291=PLANE('',#1532);
#292=PLANE('',#1533);
#293=PLANE('',#1534);
#294=PLANE('',#1535);
#295=PLANE('',#1536);
#296=PLANE('',#1537);
#297=PLANE('',#1538);
#298=PLANE('',#1539);
#299=PLANE('',#1540);
#300=PLANE('',#1541);
#301=PLANE('',#1542);
#302=PLANE('',#1543);
#303=PLANE('',#1544);
#304=PLANE('',#1545);
#305=PLANE('',#1546);
#306=PLANE('',#1547);
#307=PLANE('',#1548);
#308=PLANE('',#1549);
#309=PLANE('',#1550);
#310=PLANE('',#1551);
#311=PLANE('',#1552);
#312=PLANE('',#1553);
#313=PLANE('',#1554);
#314=PLANE('',#1555);
#315=PLANE('',#1556);
#316=PLANE('',#1557);
#317=PLANE('',#1558);
#318=PLANE('',#1559);
#319=PLANE('',#1560);
#320=PLANE('',#1561);
#321=PLANE('',#1562);
#322=PLANE('',#1563);
#323=PLANE('',#1564);
#324=PLANE('',#1565);
#325=PLANE('',#1566);
#326=PLANE('',#1567);
#327=PLANE('',#1568);
#328=ORIENTED_EDGE('',*,*,#684,.T.);
#329=ORIENTED_EDGE('',*,*,#685,.F.);
#330=ORIENTED_EDGE('',*,*,#686,.T.);
#331=ORIENTED_EDGE('',*,*,#687,.F.);
#332=ORIENTED_EDGE('',*,*,#688,.T.);
#333=ORIENTED_EDGE('',*,*,#689,.F.);
#334=ORIENTED_EDGE('',*,*,#690,.T.);
#335=ORIENTED_EDGE('',*,*,#691,.F.);
#336=ORIENTED_EDGE('',*,*,#692,.T.);
#337=ORIENTED_EDGE('',*,*,#693,.F.);
#338=ORIENTED_EDGE('',*,*,#694,.T.);
#339=ORIENTED_EDGE('',*,*,#695,.F.);
#340=ORIENTED_EDGE('',*,*,#696,.F.);
#341=ORIENTED_EDGE('',*,*,#697,.F.);
#342=ORIENTED_EDGE('',*,*,#697,.T.);
#343=ORIENTED_EDGE('',*,*,#684,.F.);
#344=ORIENTED_EDGE('',*,*,#696,.T.);
#345=ORIENTED_EDGE('',*,*,#698,.T.);
#346=ORIENTED_EDGE('',*,*,#699,.T.);
#347=ORIENTED_EDGE('',*,*,#700,.T.);
#348=ORIENTED_EDGE('',*,*,#701,.T.);
#349=ORIENTED_EDGE('',*,*,#702,.T.);
#350=ORIENTED_EDGE('',*,*,#703,.F.);
#351=ORIENTED_EDGE('',*,*,#704,.F.);
#352=ORIENTED_EDGE('',*,*,#705,.F.);
#353=ORIENTED_EDGE('',*,*,#706,.F.);
#354=ORIENTED_EDGE('',*,*,#707,.F.);
#355=ORIENTED_EDGE('',*,*,#708,.F.);
#356=ORIENTED_EDGE('',*,*,#709,.F.);
#357=ORIENTED_EDGE('',*,*,#710,.F.);
#358=ORIENTED_EDGE('',*,*,#711,.F.);
#359=ORIENTED_EDGE('',*,*,#712,.F.);
#360=ORIENTED_EDGE('',*,*,#713,.F.);
#361=ORIENTED_EDGE('',*,*,#714,.F.);
#362=ORIENTED_EDGE('',*,*,#715,.F.);
#363=ORIENTED_EDGE('',*,*,#716,.F.);
#364=ORIENTED_EDGE('',*,*,#717,.F.);
#365=ORIENTED_EDGE('',*,*,#718,.F.);
#366=ORIENTED_EDGE('',*,*,#719,.F.);
#367=ORIENTED_EDGE('',*,*,#720,.F.);
#368=ORIENTED_EDGE('',*,*,#721,.F.);
#369=ORIENTED_EDGE('',*,*,#722,.F.);
#370=ORIENTED_EDGE('',*,*,#723,.F.);
#371=ORIENTED_EDGE('',*,*,#724,.F.);
#372=ORIENTED_EDGE('',*,*,#725,.F.);
#373=ORIENTED_EDGE('',*,*,#726,.F.);
#374=ORIENTED_EDGE('',*,*,#727,.F.);
#375=ORIENTED_EDGE('',*,*,#728,.F.);
#376=ORIENTED_EDGE('',*,*,#729,.F.);
#377=ORIENTED_EDGE('',*,*,#730,.F.);
#378=ORIENTED_EDGE('',*,*,#731,.F.);
#379=ORIENTED_EDGE('',*,*,#732,.F.);
#380=ORIENTED_EDGE('',*,*,#733,.F.);
#381=ORIENTED_EDGE('',*,*,#734,.F.);
#382=ORIENTED_EDGE('',*,*,#735,.F.);
#383=ORIENTED_EDGE('',*,*,#736,.F.);
#384=ORIENTED_EDGE('',*,*,#737,.F.);
#385=ORIENTED_EDGE('',*,*,#738,.F.);
#386=ORIENTED_EDGE('',*,*,#739,.F.);
#387=ORIENTED_EDGE('',*,*,#740,.T.);
#388=ORIENTED_EDGE('',*,*,#741,.F.);
#389=ORIENTED_EDGE('',*,*,#742,.T.);
#390=ORIENTED_EDGE('',*,*,#743,.T.);
#391=ORIENTED_EDGE('',*,*,#744,.T.);
#392=ORIENTED_EDGE('',*,*,#745,.T.);
#393=ORIENTED_EDGE('',*,*,#746,.T.);
#394=ORIENTED_EDGE('',*,*,#747,.T.);
#395=ORIENTED_EDGE('',*,*,#748,.F.);
#396=ORIENTED_EDGE('',*,*,#743,.F.);
#397=ORIENTED_EDGE('',*,*,#749,.T.);
#398=ORIENTED_EDGE('',*,*,#750,.T.);
#399=ORIENTED_EDGE('',*,*,#751,.F.);
#400=ORIENTED_EDGE('',*,*,#744,.F.);
#401=ORIENTED_EDGE('',*,*,#748,.T.);
#402=ORIENTED_EDGE('',*,*,#752,.T.);
#403=ORIENTED_EDGE('',*,*,#753,.T.);
#404=ORIENTED_EDGE('',*,*,#754,.F.);
#405=ORIENTED_EDGE('',*,*,#745,.F.);
#406=ORIENTED_EDGE('',*,*,#751,.T.);
#407=ORIENTED_EDGE('',*,*,#754,.T.);
#408=ORIENTED_EDGE('',*,*,#755,.T.);
#409=ORIENTED_EDGE('',*,*,#756,.F.);
#410=ORIENTED_EDGE('',*,*,#746,.F.);
#411=ORIENTED_EDGE('',*,*,#757,.F.);
#412=ORIENTED_EDGE('',*,*,#758,.F.);
#413=ORIENTED_EDGE('',*,*,#759,.F.);
#414=ORIENTED_EDGE('',*,*,#739,.T.);
#415=ORIENTED_EDGE('',*,*,#756,.T.);
#416=ORIENTED_EDGE('',*,*,#760,.F.);
#417=ORIENTED_EDGE('',*,*,#761,.T.);
#418=ORIENTED_EDGE('',*,*,#762,.F.);
#419=ORIENTED_EDGE('',*,*,#740,.F.);
#420=ORIENTED_EDGE('',*,*,#759,.T.);
#421=ORIENTED_EDGE('',*,*,#763,.T.);
#422=ORIENTED_EDGE('',*,*,#764,.T.);
#423=ORIENTED_EDGE('',*,*,#749,.F.);
#424=ORIENTED_EDGE('',*,*,#742,.F.);
#425=ORIENTED_EDGE('',*,*,#698,.F.);
#426=ORIENTED_EDGE('',*,*,#765,.F.);
#427=ORIENTED_EDGE('',*,*,#763,.F.);
#428=ORIENTED_EDGE('',*,*,#741,.T.);
#429=ORIENTED_EDGE('',*,*,#762,.T.);
#430=ORIENTED_EDGE('',*,*,#766,.F.);
#431=ORIENTED_EDGE('',*,*,#767,.F.);
#432=ORIENTED_EDGE('',*,*,#768,.F.);
#433=ORIENTED_EDGE('',*,*,#769,.F.);
#434=ORIENTED_EDGE('',*,*,#770,.F.);
#435=ORIENTED_EDGE('',*,*,#771,.F.);
#436=ORIENTED_EDGE('',*,*,#764,.F.);
#437=ORIENTED_EDGE('',*,*,#765,.T.);
#438=ORIENTED_EDGE('',*,*,#772,.F.);
#439=ORIENTED_EDGE('',*,*,#767,.T.);
#440=ORIENTED_EDGE('',*,*,#773,.F.);
#441=ORIENTED_EDGE('',*,*,#766,.T.);
#442=ORIENTED_EDGE('',*,*,#761,.F.);
#443=ORIENTED_EDGE('',*,*,#758,.T.);
#444=ORIENTED_EDGE('',*,*,#774,.F.);
#445=ORIENTED_EDGE('',*,*,#760,.T.);
#446=ORIENTED_EDGE('',*,*,#755,.F.);
#447=ORIENTED_EDGE('',*,*,#753,.F.);
#448=ORIENTED_EDGE('',*,*,#775,.F.);
#449=ORIENTED_EDGE('',*,*,#752,.F.);
#450=ORIENTED_EDGE('',*,*,#750,.F.);
#451=ORIENTED_EDGE('',*,*,#747,.F.);
#452=ORIENTED_EDGE('',*,*,#776,.F.);
#453=ORIENTED_EDGE('',*,*,#773,.T.);
#454=ORIENTED_EDGE('',*,*,#777,.T.);
#455=ORIENTED_EDGE('',*,*,#776,.T.);
#456=ORIENTED_EDGE('',*,*,#778,.F.);
#457=ORIENTED_EDGE('',*,*,#774,.T.);
#458=ORIENTED_EDGE('',*,*,#779,.T.);
#459=ORIENTED_EDGE('',*,*,#778,.T.);
#460=ORIENTED_EDGE('',*,*,#780,.F.);
#461=ORIENTED_EDGE('',*,*,#775,.T.);
#462=ORIENTED_EDGE('',*,*,#781,.T.);
#463=ORIENTED_EDGE('',*,*,#780,.T.);
#464=ORIENTED_EDGE('',*,*,#782,.T.);
#465=ORIENTED_EDGE('',*,*,#757,.T.);
#466=ORIENTED_EDGE('',*,*,#783,.T.);
#467=ORIENTED_EDGE('',*,*,#686,.F.);
#468=ORIENTED_EDGE('',*,*,#782,.F.);
#469=ORIENTED_EDGE('',*,*,#783,.F.);
#470=ORIENTED_EDGE('',*,*,#784,.T.);
#471=ORIENTED_EDGE('',*,*,#688,.F.);
#472=ORIENTED_EDGE('',*,*,#781,.F.);
#473=ORIENTED_EDGE('',*,*,#784,.F.);
#474=ORIENTED_EDGE('',*,*,#785,.T.);
#475=ORIENTED_EDGE('',*,*,#690,.F.);
#476=ORIENTED_EDGE('',*,*,#779,.F.);
#477=ORIENTED_EDGE('',*,*,#785,.F.);
#478=ORIENTED_EDGE('',*,*,#786,.T.);
#479=ORIENTED_EDGE('',*,*,#692,.F.);
#480=ORIENTED_EDGE('',*,*,#777,.F.);
#481=ORIENTED_EDGE('',*,*,#786,.F.);
#482=ORIENTED_EDGE('',*,*,#787,.F.);
#483=ORIENTED_EDGE('',*,*,#772,.T.);
#484=ORIENTED_EDGE('',*,*,#788,.T.);
#485=ORIENTED_EDGE('',*,*,#787,.T.);
#486=ORIENTED_EDGE('',*,*,#789,.T.);
#487=ORIENTED_EDGE('',*,*,#694,.F.);
#488=ORIENTED_EDGE('',*,*,#788,.F.);
#489=ORIENTED_EDGE('',*,*,#789,.F.);
#490=ORIENTED_EDGE('',*,*,#790,.T.);
#491=ORIENTED_EDGE('',*,*,#791,.T.);
#492=ORIENTED_EDGE('',*,*,#792,.T.);
#493=ORIENTED_EDGE('',*,*,#793,.T.);
#494=ORIENTED_EDGE('',*,*,#794,.T.);
#495=ORIENTED_EDGE('',*,*,#795,.T.);
#496=ORIENTED_EDGE('',*,*,#695,.T.);
#497=ORIENTED_EDGE('',*,*,#733,.T.);
#498=ORIENTED_EDGE('',*,*,#796,.F.);
#499=ORIENTED_EDGE('',*,*,#790,.F.);
#500=ORIENTED_EDGE('',*,*,#797,.T.);
#501=ORIENTED_EDGE('',*,*,#738,.T.);
#502=ORIENTED_EDGE('',*,*,#798,.F.);
#503=ORIENTED_EDGE('',*,*,#791,.F.);
#504=ORIENTED_EDGE('',*,*,#796,.T.);
#505=ORIENTED_EDGE('',*,*,#737,.T.);
#506=ORIENTED_EDGE('',*,*,#799,.F.);
#507=ORIENTED_EDGE('',*,*,#792,.F.);
#508=ORIENTED_EDGE('',*,*,#798,.T.);
#509=ORIENTED_EDGE('',*,*,#736,.T.);
#510=ORIENTED_EDGE('',*,*,#800,.F.);
#511=ORIENTED_EDGE('',*,*,#793,.F.);
#512=ORIENTED_EDGE('',*,*,#799,.T.);
#513=ORIENTED_EDGE('',*,*,#735,.T.);
#514=ORIENTED_EDGE('',*,*,#801,.F.);
#515=ORIENTED_EDGE('',*,*,#794,.F.);
#516=ORIENTED_EDGE('',*,*,#800,.T.);
#517=ORIENTED_EDGE('',*,*,#734,.T.);
#518=ORIENTED_EDGE('',*,*,#797,.F.);
#519=ORIENTED_EDGE('',*,*,#795,.F.);
#520=ORIENTED_EDGE('',*,*,#801,.T.);
#521=ORIENTED_EDGE('',*,*,#802,.T.);
#522=ORIENTED_EDGE('',*,*,#803,.T.);
#523=ORIENTED_EDGE('',*,*,#804,.T.);
#524=ORIENTED_EDGE('',*,*,#805,.T.);
#525=ORIENTED_EDGE('',*,*,#806,.T.);
#526=ORIENTED_EDGE('',*,*,#807,.T.);
#527=ORIENTED_EDGE('',*,*,#693,.T.);
#528=ORIENTED_EDGE('',*,*,#727,.T.);
#529=ORIENTED_EDGE('',*,*,#808,.F.);
#530=ORIENTED_EDGE('',*,*,#802,.F.);
#531=ORIENTED_EDGE('',*,*,#809,.T.);
#532=ORIENTED_EDGE('',*,*,#732,.T.);
#533=ORIENTED_EDGE('',*,*,#810,.F.);
#534=ORIENTED_EDGE('',*,*,#803,.F.);
#535=ORIENTED_EDGE('',*,*,#808,.T.);
#536=ORIENTED_EDGE('',*,*,#731,.T.);
#537=ORIENTED_EDGE('',*,*,#811,.F.);
#538=ORIENTED_EDGE('',*,*,#804,.F.);
#539=ORIENTED_EDGE('',*,*,#810,.T.);
#540=ORIENTED_EDGE('',*,*,#730,.T.);
#541=ORIENTED_EDGE('',*,*,#812,.F.);
#542=ORIENTED_EDGE('',*,*,#805,.F.);
#543=ORIENTED_EDGE('',*,*,#811,.T.);
#544=ORIENTED_EDGE('',*,*,#729,.T.);
#545=ORIENTED_EDGE('',*,*,#813,.F.);
#546=ORIENTED_EDGE('',*,*,#806,.F.);
#547=ORIENTED_EDGE('',*,*,#812,.T.);
#548=ORIENTED_EDGE('',*,*,#728,.T.);
#549=ORIENTED_EDGE('',*,*,#809,.F.);
#550=ORIENTED_EDGE('',*,*,#807,.F.);
#551=ORIENTED_EDGE('',*,*,#813,.T.);
#552=ORIENTED_EDGE('',*,*,#814,.T.);
#553=ORIENTED_EDGE('',*,*,#815,.T.);
#554=ORIENTED_EDGE('',*,*,#816,.T.);
#555=ORIENTED_EDGE('',*,*,#817,.T.);
#556=ORIENTED_EDGE('',*,*,#818,.T.);
#557=ORIENTED_EDGE('',*,*,#819,.T.);
#558=ORIENTED_EDGE('',*,*,#691,.T.);
#559=ORIENTED_EDGE('',*,*,#721,.T.);
#560=ORIENTED_EDGE('',*,*,#820,.F.);
#561=ORIENTED_EDGE('',*,*,#814,.F.);
#562=ORIENTED_EDGE('',*,*,#821,.T.);
#563=ORIENTED_EDGE('',*,*,#726,.T.);
#564=ORIENTED_EDGE('',*,*,#822,.F.);
#565=ORIENTED_EDGE('',*,*,#815,.F.);
#566=ORIENTED_EDGE('',*,*,#820,.T.);
#567=ORIENTED_EDGE('',*,*,#725,.T.);
#568=ORIENTED_EDGE('',*,*,#823,.F.);
#569=ORIENTED_EDGE('',*,*,#816,.F.);
#570=ORIENTED_EDGE('',*,*,#822,.T.);
#571=ORIENTED_EDGE('',*,*,#724,.T.);
#572=ORIENTED_EDGE('',*,*,#824,.F.);
#573=ORIENTED_EDGE('',*,*,#817,.F.);
#574=ORIENTED_EDGE('',*,*,#823,.T.);
#575=ORIENTED_EDGE('',*,*,#723,.T.);
#576=ORIENTED_EDGE('',*,*,#825,.F.);
#577=ORIENTED_EDGE('',*,*,#818,.F.);
#578=ORIENTED_EDGE('',*,*,#824,.T.);
#579=ORIENTED_EDGE('',*,*,#722,.T.);
#580=ORIENTED_EDGE('',*,*,#821,.F.);
#581=ORIENTED_EDGE('',*,*,#819,.F.);
#582=ORIENTED_EDGE('',*,*,#825,.T.);
#583=ORIENTED_EDGE('',*,*,#826,.T.);
#584=ORIENTED_EDGE('',*,*,#827,.T.);
#585=ORIENTED_EDGE('',*,*,#828,.T.);
#586=ORIENTED_EDGE('',*,*,#829,.T.);
#587=ORIENTED_EDGE('',*,*,#830,.T.);
#588=ORIENTED_EDGE('',*,*,#831,.T.);
#589=ORIENTED_EDGE('',*,*,#689,.T.);
#590=ORIENTED_EDGE('',*,*,#709,.T.);
#591=ORIENTED_EDGE('',*,*,#832,.F.);
#592=ORIENTED_EDGE('',*,*,#826,.F.);
#593=ORIENTED_EDGE('',*,*,#833,.T.);
#594=ORIENTED_EDGE('',*,*,#714,.T.);
#595=ORIENTED_EDGE('',*,*,#834,.F.);
#596=ORIENTED_EDGE('',*,*,#827,.F.);
#597=ORIENTED_EDGE('',*,*,#832,.T.);
#598=ORIENTED_EDGE('',*,*,#713,.T.);
#599=ORIENTED_EDGE('',*,*,#835,.F.);
#600=ORIENTED_EDGE('',*,*,#828,.F.);
#601=ORIENTED_EDGE('',*,*,#834,.T.);
#602=ORIENTED_EDGE('',*,*,#712,.T.);
#603=ORIENTED_EDGE('',*,*,#836,.F.);
#604=ORIENTED_EDGE('',*,*,#829,.F.);
#605=ORIENTED_EDGE('',*,*,#835,.T.);
#606=ORIENTED_EDGE('',*,*,#711,.T.);
#607=ORIENTED_EDGE('',*,*,#837,.F.);
#608=ORIENTED_EDGE('',*,*,#830,.F.);
#609=ORIENTED_EDGE('',*,*,#836,.T.);
#610=ORIENTED_EDGE('',*,*,#710,.T.);
#611=ORIENTED_EDGE('',*,*,#833,.F.);
#612=ORIENTED_EDGE('',*,*,#831,.F.);
#613=ORIENTED_EDGE('',*,*,#837,.T.);
#614=ORIENTED_EDGE('',*,*,#838,.T.);
#615=ORIENTED_EDGE('',*,*,#839,.T.);
#616=ORIENTED_EDGE('',*,*,#840,.T.);
#617=ORIENTED_EDGE('',*,*,#841,.T.);
#618=ORIENTED_EDGE('',*,*,#842,.T.);
#619=ORIENTED_EDGE('',*,*,#843,.T.);
#620=ORIENTED_EDGE('',*,*,#687,.T.);
#621=ORIENTED_EDGE('',*,*,#715,.T.);
#622=ORIENTED_EDGE('',*,*,#844,.F.);
#623=ORIENTED_EDGE('',*,*,#838,.F.);
#624=ORIENTED_EDGE('',*,*,#845,.T.);
#625=ORIENTED_EDGE('',*,*,#720,.T.);
#626=ORIENTED_EDGE('',*,*,#846,.F.);
#627=ORIENTED_EDGE('',*,*,#839,.F.);
#628=ORIENTED_EDGE('',*,*,#844,.T.);
#629=ORIENTED_EDGE('',*,*,#719,.T.);
#630=ORIENTED_EDGE('',*,*,#847,.F.);
#631=ORIENTED_EDGE('',*,*,#840,.F.);
#632=ORIENTED_EDGE('',*,*,#846,.T.);
#633=ORIENTED_EDGE('',*,*,#718,.T.);
#634=ORIENTED_EDGE('',*,*,#848,.F.);
#635=ORIENTED_EDGE('',*,*,#841,.F.);
#636=ORIENTED_EDGE('',*,*,#847,.T.);
#637=ORIENTED_EDGE('',*,*,#717,.T.);
#638=ORIENTED_EDGE('',*,*,#849,.F.);
#639=ORIENTED_EDGE('',*,*,#842,.F.);
#640=ORIENTED_EDGE('',*,*,#848,.T.);
#641=ORIENTED_EDGE('',*,*,#716,.T.);
#642=ORIENTED_EDGE('',*,*,#845,.F.);
#643=ORIENTED_EDGE('',*,*,#843,.F.);
#644=ORIENTED_EDGE('',*,*,#849,.T.);
#645=ORIENTED_EDGE('',*,*,#850,.T.);
#646=ORIENTED_EDGE('',*,*,#851,.T.);
#647=ORIENTED_EDGE('',*,*,#852,.T.);
#648=ORIENTED_EDGE('',*,*,#853,.T.);
#649=ORIENTED_EDGE('',*,*,#854,.T.);
#650=ORIENTED_EDGE('',*,*,#855,.T.);
#651=ORIENTED_EDGE('',*,*,#685,.T.);
#652=ORIENTED_EDGE('',*,*,#703,.T.);
#653=ORIENTED_EDGE('',*,*,#856,.F.);
#654=ORIENTED_EDGE('',*,*,#850,.F.);
#655=ORIENTED_EDGE('',*,*,#857,.T.);
#656=ORIENTED_EDGE('',*,*,#708,.T.);
#657=ORIENTED_EDGE('',*,*,#858,.F.);
#658=ORIENTED_EDGE('',*,*,#851,.F.);
#659=ORIENTED_EDGE('',*,*,#856,.T.);
#660=ORIENTED_EDGE('',*,*,#707,.T.);
#661=ORIENTED_EDGE('',*,*,#859,.F.);
#662=ORIENTED_EDGE('',*,*,#852,.F.);
#663=ORIENTED_EDGE('',*,*,#858,.T.);
#664=ORIENTED_EDGE('',*,*,#706,.T.);
#665=ORIENTED_EDGE('',*,*,#860,.F.);
#666=ORIENTED_EDGE('',*,*,#853,.F.);
#667=ORIENTED_EDGE('',*,*,#859,.T.);
#668=ORIENTED_EDGE('',*,*,#705,.T.);
#669=ORIENTED_EDGE('',*,*,#861,.F.);
#670=ORIENTED_EDGE('',*,*,#854,.F.);
#671=ORIENTED_EDGE('',*,*,#860,.T.);
#672=ORIENTED_EDGE('',*,*,#704,.T.);
#673=ORIENTED_EDGE('',*,*,#857,.F.);
#674=ORIENTED_EDGE('',*,*,#855,.F.);
#675=ORIENTED_EDGE('',*,*,#861,.T.);
#676=ORIENTED_EDGE('',*,*,#702,.F.);
#677=ORIENTED_EDGE('',*,*,#771,.T.);
#678=ORIENTED_EDGE('',*,*,#701,.F.);
#679=ORIENTED_EDGE('',*,*,#770,.T.);
#680=ORIENTED_EDGE('',*,*,#700,.F.);
#681=ORIENTED_EDGE('',*,*,#769,.T.);
#682=ORIENTED_EDGE('',*,*,#699,.F.);
#683=ORIENTED_EDGE('',*,*,#768,.T.);
#684=EDGE_CURVE('',#862,#862,#992,.T.);
#685=EDGE_CURVE('',#863,#863,#993,.F.);
#686=EDGE_CURVE('',#864,#864,#994,.T.);
#687=EDGE_CURVE('',#865,#865,#995,.F.);
#688=EDGE_CURVE('',#866,#866,#996,.T.);
#689=EDGE_CURVE('',#867,#867,#997,.F.);
#690=EDGE_CURVE('',#868,#868,#998,.T.);
#691=EDGE_CURVE('',#869,#869,#999,.F.);
#692=EDGE_CURVE('',#870,#870,#1000,.T.);
#693=EDGE_CURVE('',#871,#871,#1001,.F.);
#694=EDGE_CURVE('',#872,#872,#1002,.T.);
#695=EDGE_CURVE('',#873,#873,#1003,.F.);
#696=EDGE_CURVE('',#874,#874,#1004,.F.);
#697=EDGE_CURVE('',#875,#875,#1005,.T.);
#698=EDGE_CURVE('',#876,#876,#1006,.T.);
#699=EDGE_CURVE('',#877,#877,#1007,.T.);
#700=EDGE_CURVE('',#878,#878,#1008,.T.);
#701=EDGE_CURVE('',#879,#879,#1009,.T.);
#702=EDGE_CURVE('',#880,#880,#1010,.T.);
#703=EDGE_CURVE('',#881,#882,#12,.T.);
#704=EDGE_CURVE('',#883,#881,#13,.T.);
#705=EDGE_CURVE('',#884,#883,#14,.T.);
#706=EDGE_CURVE('',#885,#884,#15,.T.);
#707=EDGE_CURVE('',#886,#885,#16,.T.);
#708=EDGE_CURVE('',#882,#886,#17,.T.);
#709=EDGE_CURVE('',#887,#888,#18,.T.);
#710=EDGE_CURVE('',#889,#887,#19,.T.);
#711=EDGE_CURVE('',#890,#889,#20,.T.);
#712=EDGE_CURVE('',#891,#890,#21,.T.);
#713=EDGE_CURVE('',#892,#891,#22,.T.);
#714=EDGE_CURVE('',#888,#892,#23,.T.);
#715=EDGE_CURVE('',#893,#894,#24,.T.);
#716=EDGE_CURVE('',#895,#893,#25,.T.);
#717=EDGE_CURVE('',#896,#895,#26,.T.);
#718=EDGE_CURVE('',#897,#896,#27,.T.);
#719=EDGE_CURVE('',#898,#897,#28,.T.);
#720=EDGE_CURVE('',#894,#898,#29,.T.);
#721=EDGE_CURVE('',#899,#900,#30,.T.);
#722=EDGE_CURVE('',#901,#899,#31,.T.);
#723=EDGE_CURVE('',#902,#901,#32,.T.);
#724=EDGE_CURVE('',#903,#902,#33,.T.);
#725=EDGE_CURVE('',#904,#903,#34,.T.);
#726=EDGE_CURVE('',#900,#904,#35,.T.);
#727=EDGE_CURVE('',#905,#906,#36,.T.);
#728=EDGE_CURVE('',#907,#905,#37,.T.);
#729=EDGE_CURVE('',#908,#907,#38,.T.);
#730=EDGE_CURVE('',#909,#908,#39,.T.);
#731=EDGE_CURVE('',#910,#909,#40,.T.);
#732=EDGE_CURVE('',#906,#910,#41,.T.);
#733=EDGE_CURVE('',#911,#912,#42,.T.);
#734=EDGE_CURVE('',#913,#911,#43,.T.);
#735=EDGE_CURVE('',#914,#913,#44,.T.);
#736=EDGE_CURVE('',#915,#914,#45,.T.);
#737=EDGE_CURVE('',#916,#915,#46,.T.);
#738=EDGE_CURVE('',#912,#916,#47,.T.);
#739=EDGE_CURVE('',#917,#918,#48,.T.);
#740=EDGE_CURVE('',#917,#919,#1011,.T.);
#741=EDGE_CURVE('',#920,#919,#49,.T.);
#742=EDGE_CURVE('',#920,#921,#1012,.T.);
#743=EDGE_CURVE('',#921,#922,#50,.T.);
#744=EDGE_CURVE('',#922,#923,#1013,.T.);
#745=EDGE_CURVE('',#923,#924,#51,.T.);
#746=EDGE_CURVE('',#924,#918,#1014,.T.);
#747=EDGE_CURVE('',#925,#926,#52,.T.);
#748=EDGE_CURVE('',#922,#926,#53,.T.);
#749=EDGE_CURVE('',#921,#925,#54,.T.);
#750=EDGE_CURVE('',#926,#927,#1015,.T.);
#751=EDGE_CURVE('',#923,#927,#55,.T.);
#752=EDGE_CURVE('',#927,#928,#56,.T.);
#753=EDGE_CURVE('',#928,#929,#57,.T.);
#754=EDGE_CURVE('',#924,#929,#58,.T.);
#755=EDGE_CURVE('',#929,#930,#1016,.T.);
#756=EDGE_CURVE('',#918,#930,#59,.T.);
#757=EDGE_CURVE('',#931,#931,#1017,.T.);
#758=EDGE_CURVE('',#932,#933,#60,.T.);
#759=EDGE_CURVE('',#917,#932,#61,.T.);
#760=EDGE_CURVE('',#933,#930,#62,.T.);
#761=EDGE_CURVE('',#932,#934,#1018,.T.);
#762=EDGE_CURVE('',#919,#934,#63,.T.);
#763=EDGE_CURVE('',#920,#935,#64,.T.);
#764=EDGE_CURVE('',#935,#925,#1019,.T.);
#765=EDGE_CURVE('',#935,#936,#65,.T.);
#766=EDGE_CURVE('',#937,#934,#66,.T.);
#767=EDGE_CURVE('',#936,#937,#67,.T.);
#768=EDGE_CURVE('',#938,#938,#1020,.F.);
#769=EDGE_CURVE('',#939,#939,#1021,.F.);
#770=EDGE_CURVE('',#940,#940,#1022,.F.);
#771=EDGE_CURVE('',#941,#941,#1023,.F.);
#772=EDGE_CURVE('',#936,#936,#1024,.T.);
#773=EDGE_CURVE('',#937,#937,#1025,.T.);
#774=EDGE_CURVE('',#933,#933,#1026,.T.);
#775=EDGE_CURVE('',#928,#928,#1027,.T.);
#776=EDGE_CURVE('',#942,#942,#1028,.T.);
#777=EDGE_CURVE('',#943,#943,#1029,.F.);
#778=EDGE_CURVE('',#944,#944,#1030,.T.);
#779=EDGE_CURVE('',#945,#945,#1031,.F.);
#780=EDGE_CURVE('',#946,#946,#1032,.T.);
#781=EDGE_CURVE('',#947,#947,#1033,.F.);
#782=EDGE_CURVE('',#948,#948,#1034,.F.);
#783=EDGE_CURVE('',#949,#949,#1035,.T.);
#784=EDGE_CURVE('',#950,#950,#1036,.T.);
#785=EDGE_CURVE('',#951,#951,#1037,.T.);
#786=EDGE_CURVE('',#952,#952,#1038,.T.);
#787=EDGE_CURVE('',#953,#953,#1039,.T.);
#788=EDGE_CURVE('',#954,#954,#1040,.F.);
#789=EDGE_CURVE('',#955,#955,#1041,.T.);
#790=EDGE_CURVE('',#956,#957,#68,.T.);
#791=EDGE_CURVE('',#957,#958,#69,.T.);
#792=EDGE_CURVE('',#958,#959,#70,.T.);
#793=EDGE_CURVE('',#959,#960,#71,.T.);
#794=EDGE_CURVE('',#960,#961,#72,.T.);
#795=EDGE_CURVE('',#961,#956,#73,.T.);
#796=EDGE_CURVE('',#957,#912,#74,.T.);
#797=EDGE_CURVE('',#956,#911,#75,.T.);
#798=EDGE_CURVE('',#958,#916,#76,.T.);
#799=EDGE_CURVE('',#959,#915,#77,.T.);
#800=EDGE_CURVE('',#960,#914,#78,.T.);
#801=EDGE_CURVE('',#961,#913,#79,.T.);
#802=EDGE_CURVE('',#962,#963,#80,.T.);
#803=EDGE_CURVE('',#963,#964,#81,.T.);
#804=EDGE_CURVE('',#964,#965,#82,.T.);
#805=EDGE_CURVE('',#965,#966,#83,.T.);
#806=EDGE_CURVE('',#966,#967,#84,.T.);
#807=EDGE_CURVE('',#967,#962,#85,.T.);
#808=EDGE_CURVE('',#963,#906,#86,.T.);
#809=EDGE_CURVE('',#962,#905,#87,.T.);
#810=EDGE_CURVE('',#964,#910,#88,.T.);
#811=EDGE_CURVE('',#965,#909,#89,.T.);
#812=EDGE_CURVE('',#966,#908,#90,.T.);
#813=EDGE_CURVE('',#967,#907,#91,.T.);
#814=EDGE_CURVE('',#968,#969,#92,.T.);
#815=EDGE_CURVE('',#969,#970,#93,.T.);
#816=EDGE_CURVE('',#970,#971,#94,.T.);
#817=EDGE_CURVE('',#971,#972,#95,.T.);
#818=EDGE_CURVE('',#972,#973,#96,.T.);
#819=EDGE_CURVE('',#973,#968,#97,.T.);
#820=EDGE_CURVE('',#969,#900,#98,.T.);
#821=EDGE_CURVE('',#968,#899,#99,.T.);
#822=EDGE_CURVE('',#970,#904,#100,.T.);
#823=EDGE_CURVE('',#971,#903,#101,.T.);
#824=EDGE_CURVE('',#972,#902,#102,.T.);
#825=EDGE_CURVE('',#973,#901,#103,.T.);
#826=EDGE_CURVE('',#974,#975,#104,.T.);
#827=EDGE_CURVE('',#975,#976,#105,.T.);
#828=EDGE_CURVE('',#976,#977,#106,.T.);
#829=EDGE_CURVE('',#977,#978,#107,.T.);
#830=EDGE_CURVE('',#978,#979,#108,.T.);
#831=EDGE_CURVE('',#979,#974,#109,.T.);
#832=EDGE_CURVE('',#975,#888,#110,.T.);
#833=EDGE_CURVE('',#974,#887,#111,.T.);
#834=EDGE_CURVE('',#976,#892,#112,.T.);
#835=EDGE_CURVE('',#977,#891,#113,.T.);
#836=EDGE_CURVE('',#978,#890,#114,.T.);
#837=EDGE_CURVE('',#979,#889,#115,.T.);
#838=EDGE_CURVE('',#980,#981,#116,.T.);
#839=EDGE_CURVE('',#981,#982,#117,.T.);
#840=EDGE_CURVE('',#982,#983,#118,.T.);
#841=EDGE_CURVE('',#983,#984,#119,.T.);
#842=EDGE_CURVE('',#984,#985,#120,.T.);
#843=EDGE_CURVE('',#985,#980,#121,.T.);
#844=EDGE_CURVE('',#981,#894,#122,.T.);
#845=EDGE_CURVE('',#980,#893,#123,.T.);
#846=EDGE_CURVE('',#982,#898,#124,.T.);
#847=EDGE_CURVE('',#983,#897,#125,.T.);
#848=EDGE_CURVE('',#984,#896,#126,.T.);
#849=EDGE_CURVE('',#985,#895,#127,.T.);
#850=EDGE_CURVE('',#986,#987,#128,.T.);
#851=EDGE_CURVE('',#987,#988,#129,.T.);
#852=EDGE_CURVE('',#988,#989,#130,.T.);
#853=EDGE_CURVE('',#989,#990,#131,.T.);
#854=EDGE_CURVE('',#990,#991,#132,.T.);
#855=EDGE_CURVE('',#991,#986,#133,.T.);
#856=EDGE_CURVE('',#987,#882,#134,.T.);
#857=EDGE_CURVE('',#986,#881,#135,.T.);
#858=EDGE_CURVE('',#988,#886,#136,.T.);
#859=EDGE_CURVE('',#989,#885,#137,.T.);
#860=EDGE_CURVE('',#990,#884,#138,.T.);
#861=EDGE_CURVE('',#991,#883,#139,.T.);
#862=VERTEX_POINT('',#1974);
#863=VERTEX_POINT('',#1976);
#864=VERTEX_POINT('',#1979);
#865=VERTEX_POINT('',#1981);
#866=VERTEX_POINT('',#1984);
#867=VERTEX_POINT('',#1986);
#868=VERTEX_POINT('',#1989);
#869=VERTEX_POINT('',#1991);
#870=VERTEX_POINT('',#1994);
#871=VERTEX_POINT('',#1996);
#872=VERTEX_POINT('',#1999);
#873=VERTEX_POINT('',#2001);
#874=VERTEX_POINT('',#2004);
#875=VERTEX_POINT('',#2006);
#876=VERTEX_POINT('',#2010);
#877=VERTEX_POINT('',#2013);
#878=VERTEX_POINT('',#2015);
#879=VERTEX_POINT('',#2017);
#880=VERTEX_POINT('',#2019);
#881=VERTEX_POINT('',#2021);
#882=VERTEX_POINT('',#2022);
#883=VERTEX_POINT('',#2024);
#884=VERTEX_POINT('',#2026);
#885=VERTEX_POINT('',#2028);
#886=VERTEX_POINT('',#2030);
#887=VERTEX_POINT('',#2033);
#888=VERTEX_POINT('',#2034);
#889=VERTEX_POINT('',#2036);
#890=VERTEX_POINT('',#2038);
#891=VERTEX_POINT('',#2040);
#892=VERTEX_POINT('',#2042);
#893=VERTEX_POINT('',#2045);
#894=VERTEX_POINT('',#2046);
#895=VERTEX_POINT('',#2048);
#896=VERTEX_POINT('',#2050);
#897=VERTEX_POINT('',#2052);
#898=VERTEX_POINT('',#2054);
#899=VERTEX_POINT('',#2057);
#900=VERTEX_POINT('',#2058);
#901=VERTEX_POINT('',#2060);
#902=VERTEX_POINT('',#2062);
#903=VERTEX_POINT('',#2064);
#904=VERTEX_POINT('',#2066);
#905=VERTEX_POINT('',#2069);
#906=VERTEX_POINT('',#2070);
#907=VERTEX_POINT('',#2072);
#908=VERTEX_POINT('',#2074);
#909=VERTEX_POINT('',#2076);
#910=VERTEX_POINT('',#2078);
#911=VERTEX_POINT('',#2081);
#912=VERTEX_POINT('',#2082);
#913=VERTEX_POINT('',#2084);
#914=VERTEX_POINT('',#2086);
#915=VERTEX_POINT('',#2088);
#916=VERTEX_POINT('',#2090);
#917=VERTEX_POINT('',#2093);
#918=VERTEX_POINT('',#2094);
#919=VERTEX_POINT('',#2096);
#920=VERTEX_POINT('',#2098);
#921=VERTEX_POINT('',#2100);
#922=VERTEX_POINT('',#2102);
#923=VERTEX_POINT('',#2104);
#924=VERTEX_POINT('',#2106);
#925=VERTEX_POINT('',#2110);
#926=VERTEX_POINT('',#2111);
#927=VERTEX_POINT('',#2116);
#928=VERTEX_POINT('',#2120);
#929=VERTEX_POINT('',#2122);
#930=VERTEX_POINT('',#2126);
#931=VERTEX_POINT('',#2129);
#932=VERTEX_POINT('',#2132);
#933=VERTEX_POINT('',#2133);
#934=VERTEX_POINT('',#2138);
#935=VERTEX_POINT('',#2142);
#936=VERTEX_POINT('',#2146);
#937=VERTEX_POINT('',#2148);
#938=VERTEX_POINT('',#2152);
#939=VERTEX_POINT('',#2154);
#940=VERTEX_POINT('',#2156);
#941=VERTEX_POINT('',#2158);
#942=VERTEX_POINT('',#2165);
#943=VERTEX_POINT('',#2168);
#944=VERTEX_POINT('',#2171);
#945=VERTEX_POINT('',#2174);
#946=VERTEX_POINT('',#2177);
#947=VERTEX_POINT('',#2180);
#948=VERTEX_POINT('',#2183);
#949=VERTEX_POINT('',#2186);
#950=VERTEX_POINT('',#2190);
#951=VERTEX_POINT('',#2194);
#952=VERTEX_POINT('',#2198);
#953=VERTEX_POINT('',#2202);
#954=VERTEX_POINT('',#2205);
#955=VERTEX_POINT('',#2208);
#956=VERTEX_POINT('',#2212);
#957=VERTEX_POINT('',#2213);
#958=VERTEX_POINT('',#2215);
#959=VERTEX_POINT('',#2217);
#960=VERTEX_POINT('',#2219);
#961=VERTEX_POINT('',#2221);
#962=VERTEX_POINT('',#2237);
#963=VERTEX_POINT('',#2238);
#964=VERTEX_POINT('',#2240);
#965=VERTEX_POINT('',#2242);
#966=VERTEX_POINT('',#2244);
#967=VERTEX_POINT('',#2246);
#968=VERTEX_POINT('',#2262);
#969=VERTEX_POINT('',#2263);
#970=VERTEX_POINT('',#2265);
#971=VERTEX_POINT('',#2267);
#972=VERTEX_POINT('',#2269);
#973=VERTEX_POINT('',#2271);
#974=VERTEX_POINT('',#2287);
#975=VERTEX_POINT('',#2288);
#976=VERTEX_POINT('',#2290);
#977=VERTEX_POINT('',#2292);
#978=VERTEX_POINT('',#2294);
#979=VERTEX_POINT('',#2296);
#980=VERTEX_POINT('',#2312);
#981=VERTEX_POINT('',#2313);
#982=VERTEX_POINT('',#2315);
#983=VERTEX_POINT('',#2317);
#984=VERTEX_POINT('',#2319);
#985=VERTEX_POINT('',#2321);
#986=VERTEX_POINT('',#2337);
#987=VERTEX_POINT('',#2338);
#988=VERTEX_POINT('',#2340);
#989=VERTEX_POINT('',#2342);
#990=VERTEX_POINT('',#2344);
#991=VERTEX_POINT('',#2346);
#992=CIRCLE('',#1440,0.0017);
#993=CIRCLE('',#1441,0.0017);
#994=CIRCLE('',#1443,0.0017);
#995=CIRCLE('',#1444,0.0017);
#996=CIRCLE('',#1446,0.0017);
#997=CIRCLE('',#1447,0.0017);
#998=CIRCLE('',#1449,0.0017);
#999=CIRCLE('',#1450,0.0017);
#1000=CIRCLE('',#1452,0.0017);
#1001=CIRCLE('',#1453,0.0017);
#1002=CIRCLE('',#1455,0.0017);
#1003=CIRCLE('',#1456,0.0017);
#1004=CIRCLE('',#1458,0.0037);
#1005=CIRCLE('',#1459,0.0037);
#1006=CIRCLE('',#1462,0.005);
#1007=CIRCLE('',#1464,0.0019);
#1008=CIRCLE('',#1465,0.0019);
#1009=CIRCLE('',#1466,0.0019);
#1010=CIRCLE('',#1467,0.0019);
#1011=CIRCLE('',#1468,0.005);
#1012=CIRCLE('',#1469,0.005);
#1013=CIRCLE('',#1470,0.005);
#1014=CIRCLE('',#1471,0.005);
#1015=CIRCLE('',#1474,0.005);
#1016=CIRCLE('',#1477,0.005);
#1017=CIRCLE('',#1478,0.005);
#1018=CIRCLE('',#1481,0.005);
#1019=CIRCLE('',#1483,0.005);
#1020=CIRCLE('',#1486,0.0019);
#1021=CIRCLE('',#1487,0.0019);
#1022=CIRCLE('',#1488,0.0019);
#1023=CIRCLE('',#1489,0.0019);
#1024=CIRCLE('',#1490,0.005);
#1025=CIRCLE('',#1491,0.005);
#1026=CIRCLE('',#1492,0.005);
#1027=CIRCLE('',#1493,0.005);
#1028=CIRCLE('',#1495,0.005);
#1029=CIRCLE('',#1497,0.0037);
#1030=CIRCLE('',#1499,0.005);
#1031=CIRCLE('',#1501,0.0037);
#1032=CIRCLE('',#1503,0.005);
#1033=CIRCLE('',#1505,0.0037);
#1034=CIRCLE('',#1507,0.0037);
#1035=CIRCLE('',#1509,0.0037);
#1036=CIRCLE('',#1512,0.0037);
#1037=CIRCLE('',#1515,0.0037);
#1038=CIRCLE('',#1518,0.0037);
#1039=CIRCLE('',#1521,0.005);
#1040=CIRCLE('',#1523,0.0037);
#1041=CIRCLE('',#1525,0.0037);
#1042=EDGE_LOOP('',(#328));
#1043=EDGE_LOOP('',(#329));
#1044=EDGE_LOOP('',(#330));
#1045=EDGE_LOOP('',(#331));
#1046=EDGE_LOOP('',(#332));
#1047=EDGE_LOOP('',(#333));
#1048=EDGE_LOOP('',(#334));
#1049=EDGE_LOOP('',(#335));
#1050=EDGE_LOOP('',(#336));
#1051=EDGE_LOOP('',(#337));
#1052=EDGE_LOOP('',(#338));
#1053=EDGE_LOOP('',(#339));
#1054=EDGE_LOOP('',(#340));
#1055=EDGE_LOOP('',(#341));
#1056=EDGE_LOOP('',(#342));
#1057=EDGE_LOOP('',(#343));
#1058=EDGE_LOOP('',(#344));
#1059=EDGE_LOOP('',(#345));
#1060=EDGE_LOOP('',(#346));
#1061=EDGE_LOOP('',(#347));
#1062=EDGE_LOOP('',(#348));
#1063=EDGE_LOOP('',(#349));
#1064=EDGE_LOOP('',(#350,#351,#352,#353,#354,#355));
#1065=EDGE_LOOP('',(#356,#357,#358,#359,#360,#361));
#1066=EDGE_LOOP('',(#362,#363,#364,#365,#366,#367));
#1067=EDGE_LOOP('',(#368,#369,#370,#371,#372,#373));
#1068=EDGE_LOOP('',(#374,#375,#376,#377,#378,#379));
#1069=EDGE_LOOP('',(#380,#381,#382,#383,#384,#385));
#1070=EDGE_LOOP('',(#386,#387,#388,#389,#390,#391,#392,#393));
#1071=EDGE_LOOP('',(#394,#395,#396,#397));
#1072=EDGE_LOOP('',(#398,#399,#400,#401));
#1073=EDGE_LOOP('',(#402,#403,#404,#405,#406));
#1074=EDGE_LOOP('',(#407,#408,#409,#410));
#1075=EDGE_LOOP('',(#411));
#1076=EDGE_LOOP('',(#412,#413,#414,#415,#416));
#1077=EDGE_LOOP('',(#417,#418,#419,#420));
#1078=EDGE_LOOP('',(#421,#422,#423,#424));
#1079=EDGE_LOOP('',(#425));
#1080=EDGE_LOOP('',(#426,#427,#428,#429,#430,#431));
#1081=EDGE_LOOP('',(#432));
#1082=EDGE_LOOP('',(#433));
#1083=EDGE_LOOP('',(#434));
#1084=EDGE_LOOP('',(#435));
#1085=EDGE_LOOP('',(#436,#437,#438,#439,#440,#441,#442,#443,#444,#445,#446,
#447,#448,#449,#450,#451));
#1086=EDGE_LOOP('',(#452));
#1087=EDGE_LOOP('',(#453));
#1088=EDGE_LOOP('',(#454));
#1089=EDGE_LOOP('',(#455));
#1090=EDGE_LOOP('',(#456));
#1091=EDGE_LOOP('',(#457));
#1092=EDGE_LOOP('',(#458));
#1093=EDGE_LOOP('',(#459));
#1094=EDGE_LOOP('',(#460));
#1095=EDGE_LOOP('',(#461));
#1096=EDGE_LOOP('',(#462));
#1097=EDGE_LOOP('',(#463));
#1098=EDGE_LOOP('',(#464));
#1099=EDGE_LOOP('',(#465));
#1100=EDGE_LOOP('',(#466));
#1101=EDGE_LOOP('',(#467));
#1102=EDGE_LOOP('',(#468));
#1103=EDGE_LOOP('',(#469));
#1104=EDGE_LOOP('',(#470));
#1105=EDGE_LOOP('',(#471));
#1106=EDGE_LOOP('',(#472));
#1107=EDGE_LOOP('',(#473));
#1108=EDGE_LOOP('',(#474));
#1109=EDGE_LOOP('',(#475));
#1110=EDGE_LOOP('',(#476));
#1111=EDGE_LOOP('',(#477));
#1112=EDGE_LOOP('',(#478));
#1113=EDGE_LOOP('',(#479));
#1114=EDGE_LOOP('',(#480));
#1115=EDGE_LOOP('',(#481));
#1116=EDGE_LOOP('',(#482));
#1117=EDGE_LOOP('',(#483));
#1118=EDGE_LOOP('',(#484));
#1119=EDGE_LOOP('',(#485));
#1120=EDGE_LOOP('',(#486));
#1121=EDGE_LOOP('',(#487));
#1122=EDGE_LOOP('',(#488));
#1123=EDGE_LOOP('',(#489));
#1124=EDGE_LOOP('',(#490,#491,#492,#493,#494,#495));
#1125=EDGE_LOOP('',(#496));
#1126=EDGE_LOOP('',(#497,#498,#499,#500));
#1127=EDGE_LOOP('',(#501,#502,#503,#504));
#1128=EDGE_LOOP('',(#505,#506,#507,#508));
#1129=EDGE_LOOP('',(#509,#510,#511,#512));
#1130=EDGE_LOOP('',(#513,#514,#515,#516));
#1131=EDGE_LOOP('',(#517,#518,#519,#520));
#1132=EDGE_LOOP('',(#521,#522,#523,#524,#525,#526));
#1133=EDGE_LOOP('',(#527));
#1134=EDGE_LOOP('',(#528,#529,#530,#531));
#1135=EDGE_LOOP('',(#532,#533,#534,#535));
#1136=EDGE_LOOP('',(#536,#537,#538,#539));
#1137=EDGE_LOOP('',(#540,#541,#542,#543));
#1138=EDGE_LOOP('',(#544,#545,#546,#547));
#1139=EDGE_LOOP('',(#548,#549,#550,#551));
#1140=EDGE_LOOP('',(#552,#553,#554,#555,#556,#557));
#1141=EDGE_LOOP('',(#558));
#1142=EDGE_LOOP('',(#559,#560,#561,#562));
#1143=EDGE_LOOP('',(#563,#564,#565,#566));
#1144=EDGE_LOOP('',(#567,#568,#569,#570));
#1145=EDGE_LOOP('',(#571,#572,#573,#574));
#1146=EDGE_LOOP('',(#575,#576,#577,#578));
#1147=EDGE_LOOP('',(#579,#580,#581,#582));
#1148=EDGE_LOOP('',(#583,#584,#585,#586,#587,#588));
#1149=EDGE_LOOP('',(#589));
#1150=EDGE_LOOP('',(#590,#591,#592,#593));
#1151=EDGE_LOOP('',(#594,#595,#596,#597));
#1152=EDGE_LOOP('',(#598,#599,#600,#601));
#1153=EDGE_LOOP('',(#602,#603,#604,#605));
#1154=EDGE_LOOP('',(#606,#607,#608,#609));
#1155=EDGE_LOOP('',(#610,#611,#612,#613));
#1156=EDGE_LOOP('',(#614,#615,#616,#617,#618,#619));
#1157=EDGE_LOOP('',(#620));
#1158=EDGE_LOOP('',(#621,#622,#623,#624));
#1159=EDGE_LOOP('',(#625,#626,#627,#628));
#1160=EDGE_LOOP('',(#629,#630,#631,#632));
#1161=EDGE_LOOP('',(#633,#634,#635,#636));
#1162=EDGE_LOOP('',(#637,#638,#639,#640));
#1163=EDGE_LOOP('',(#641,#642,#643,#644));
#1164=EDGE_LOOP('',(#645,#646,#647,#648,#649,#650));
#1165=EDGE_LOOP('',(#651));
#1166=EDGE_LOOP('',(#652,#653,#654,#655));
#1167=EDGE_LOOP('',(#656,#657,#658,#659));
#1168=EDGE_LOOP('',(#660,#661,#662,#663));
#1169=EDGE_LOOP('',(#664,#665,#666,#667));
#1170=EDGE_LOOP('',(#668,#669,#670,#671));
#1171=EDGE_LOOP('',(#672,#673,#674,#675));
#1172=EDGE_LOOP('',(#676));
#1173=EDGE_LOOP('',(#677));
#1174=EDGE_LOOP('',(#678));
#1175=EDGE_LOOP('',(#679));
#1176=EDGE_LOOP('',(#680));
#1177=EDGE_LOOP('',(#681));
#1178=EDGE_LOOP('',(#682));
#1179=EDGE_LOOP('',(#683));
#1180=FACE_BOUND('',#1042,.T.);
#1181=FACE_BOUND('',#1043,.T.);
#1182=FACE_BOUND('',#1044,.T.);
#1183=FACE_BOUND('',#1045,.T.);
#1184=FACE_BOUND('',#1046,.T.);
#1185=FACE_BOUND('',#1047,.T.);
#1186=FACE_BOUND('',#1048,.T.);
#1187=FACE_BOUND('',#1049,.T.);
#1188=FACE_BOUND('',#1050,.T.);
#1189=FACE_BOUND('',#1051,.T.);
#1190=FACE_BOUND('',#1052,.T.);
#1191=FACE_BOUND('',#1053,.T.);
#1192=FACE_BOUND('',#1054,.T.);
#1193=FACE_BOUND('',#1055,.T.);
#1194=FACE_BOUND('',#1056,.T.);
#1195=FACE_BOUND('',#1057,.T.);
#1196=FACE_BOUND('',#1058,.T.);
#1197=FACE_BOUND('',#1059,.T.);
#1198=FACE_BOUND('',#1060,.T.);
#1199=FACE_BOUND('',#1061,.T.);
#1200=FACE_BOUND('',#1062,.T.);
#1201=FACE_BOUND('',#1063,.T.);
#1202=FACE_BOUND('',#1064,.T.);
#1203=FACE_BOUND('',#1065,.T.);
#1204=FACE_BOUND('',#1066,.T.);
#1205=FACE_BOUND('',#1067,.T.);
#1206=FACE_BOUND('',#1068,.T.);
#1207=FACE_BOUND('',#1069,.T.);
#1208=FACE_BOUND('',#1070,.T.);
#1209=FACE_BOUND('',#1071,.T.);
#1210=FACE_BOUND('',#1072,.T.);
#1211=FACE_BOUND('',#1073,.T.);
#1212=FACE_BOUND('',#1074,.T.);
#1213=FACE_BOUND('',#1075,.T.);
#1214=FACE_BOUND('',#1076,.T.);
#1215=FACE_BOUND('',#1077,.T.);
#1216=FACE_BOUND('',#1078,.T.);
#1217=FACE_BOUND('',#1079,.T.);
#1218=FACE_BOUND('',#1080,.T.);
#1219=FACE_BOUND('',#1081,.T.);
#1220=FACE_BOUND('',#1082,.T.);
#1221=FACE_BOUND('',#1083,.T.);
#1222=FACE_BOUND('',#1084,.T.);
#1223=FACE_BOUND('',#1085,.T.);
#1224=FACE_BOUND('',#1086,.T.);
#1225=FACE_BOUND('',#1087,.T.);
#1226=FACE_BOUND('',#1088,.T.);
#1227=FACE_BOUND('',#1089,.T.);
#1228=FACE_BOUND('',#1090,.T.);
#1229=FACE_BOUND('',#1091,.T.);
#1230=FACE_BOUND('',#1092,.T.);
#1231=FACE_BOUND('',#1093,.T.);
#1232=FACE_BOUND('',#1094,.T.);
#1233=FACE_BOUND('',#1095,.T.);
#1234=FACE_BOUND('',#1096,.T.);
#1235=FACE_BOUND('',#1097,.T.);
#1236=FACE_BOUND('',#1098,.T.);
#1237=FACE_BOUND('',#1099,.T.);
#1238=FACE_BOUND('',#1100,.T.);
#1239=FACE_BOUND('',#1101,.T.);
#1240=FACE_BOUND('',#1102,.T.);
#1241=FACE_BOUND('',#1103,.T.);
#1242=FACE_BOUND('',#1104,.T.);
#1243=FACE_BOUND('',#1105,.T.);
#1244=FACE_BOUND('',#1106,.T.);
#1245=FACE_BOUND('',#1107,.T.);
#1246=FACE_BOUND('',#1108,.T.);
#1247=FACE_BOUND('',#1109,.T.);
#1248=FACE_BOUND('',#1110,.T.);
#1249=FACE_BOUND('',#1111,.T.);
#1250=FACE_BOUND('',#1112,.T.);
#1251=FACE_BOUND('',#1113,.T.);
#1252=FACE_BOUND('',#1114,.T.);
#1253=FACE_BOUND('',#1115,.T.);
#1254=FACE_BOUND('',#1116,.T.);
#1255=FACE_BOUND('',#1117,.T.);
#1256=FACE_BOUND('',#1118,.T.);
#1257=FACE_BOUND('',#1119,.T.);
#1258=FACE_BOUND('',#1120,.T.);
#1259=FACE_BOUND('',#1121,.T.);
#1260=FACE_BOUND('',#1122,.T.);
#1261=FACE_BOUND('',#1123,.T.);
#1262=FACE_BOUND('',#1124,.T.);
#1263=FACE_BOUND('',#1125,.T.);
#1264=FACE_BOUND('',#1126,.T.);
#1265=FACE_BOUND('',#1127,.T.);
#1266=FACE_BOUND('',#1128,.T.);
#1267=FACE_BOUND('',#1129,.T.);
#1268=FACE_BOUND('',#1130,.T.);
#1269=FACE_BOUND('',#1131,.T.);
#1270=FACE_BOUND('',#1132,.T.);
#1271=FACE_BOUND('',#1133,.T.);
#1272=FACE_BOUND('',#1134,.T.);
#1273=FACE_BOUND('',#1135,.T.);
#1274=FACE_BOUND('',#1136,.T.);
#1275=FACE_BOUND('',#1137,.T.);
#1276=FACE_BOUND('',#1138,.T.);
#1277=FACE_BOUND('',#1139,.T.);
#1278=FACE_BOUND('',#1140,.T.);
#1279=FACE_BOUND('',#1141,.T.);
#1280=FACE_BOUND('',#1142,.T.);
#1281=FACE_BOUND('',#1143,.T.);
#1282=FACE_BOUND('',#1144,.T.);
#1283=FACE_BOUND('',#1145,.T.);
#1284=FACE_BOUND('',#1146,.T.);
#1285=FACE_BOUND('',#1147,.T.);
#1286=FACE_BOUND('',#1148,.T.);
#1287=FACE_BOUND('',#1149,.T.);
#1288=FACE_BOUND('',#1150,.T.);
#1289=FACE_BOUND('',#1151,.T.);
#1290=FACE_BOUND('',#1152,.T.);
#1291=FACE_BOUND('',#1153,.T.);
#1292=FACE_BOUND('',#1154,.T.);
#1293=FACE_BOUND('',#1155,.T.);
#1294=FACE_BOUND('',#1156,.T.);
#1295=FACE_BOUND('',#1157,.T.);
#1296=FACE_BOUND('',#1158,.T.);
#1297=FACE_BOUND('',#1159,.T.);
#1298=FACE_BOUND('',#1160,.T.);
#1299=FACE_BOUND('',#1161,.T.);
#1300=FACE_BOUND('',#1162,.T.);
#1301=FACE_BOUND('',#1163,.T.);
#1302=FACE_BOUND('',#1164,.T.);
#1303=FACE_BOUND('',#1165,.T.);
#1304=FACE_BOUND('',#1166,.T.);
#1305=FACE_BOUND('',#1167,.T.);
#1306=FACE_BOUND('',#1168,.T.);
#1307=FACE_BOUND('',#1169,.T.);
#1308=FACE_BOUND('',#1170,.T.);
#1309=FACE_BOUND('',#1171,.T.);
#1310=FACE_BOUND('',#1172,.T.);
#1311=FACE_BOUND('',#1173,.T.);
#1312=FACE_BOUND('',#1174,.T.);
#1313=FACE_BOUND('',#1175,.T.);
#1314=FACE_BOUND('',#1176,.T.);
#1315=FACE_BOUND('',#1177,.T.);
#1316=FACE_BOUND('',#1178,.T.);
#1317=FACE_BOUND('',#1179,.T.);
#1318=CYLINDRICAL_SURFACE('',#1439,0.0017);
#1319=CYLINDRICAL_SURFACE('',#1442,0.0017);
#1320=CYLINDRICAL_SURFACE('',#1445,0.0017);
#1321=CYLINDRICAL_SURFACE('',#1448,0.0017);
#1322=CYLINDRICAL_SURFACE('',#1451,0.0017);
#1323=CYLINDRICAL_SURFACE('',#1454,0.0017);
#1324=CYLINDRICAL_SURFACE('',#1457,0.0037);
#1325=CYLINDRICAL_SURFACE('',#1473,0.005);
#1326=CYLINDRICAL_SURFACE('',#1476,0.005);
#1327=CYLINDRICAL_SURFACE('',#1480,0.005);
#1328=CYLINDRICAL_SURFACE('',#1482,0.005);
#1329=CYLINDRICAL_SURFACE('',#1494,0.005);
#1330=CYLINDRICAL_SURFACE('',#1498,0.005);
#1331=CYLINDRICAL_SURFACE('',#1502,0.005);
#1332=CYLINDRICAL_SURFACE('',#1510,0.0037);
#1333=CYLINDRICAL_SURFACE('',#1513,0.0037);
#1334=CYLINDRICAL_SURFACE('',#1516,0.0037);
#1335=CYLINDRICAL_SURFACE('',#1519,0.0037);
#1336=CYLINDRICAL_SURFACE('',#1520,0.005);
#1337=CYLINDRICAL_SURFACE('',#1526,0.0037);
#1338=CYLINDRICAL_SURFACE('',#1569,0.0019);
#1339=CYLINDRICAL_SURFACE('',#1570,0.0019);
#1340=CYLINDRICAL_SURFACE('',#1571,0.0019);
#1341=CYLINDRICAL_SURFACE('',#1572,0.0019);
#1342=ADVANCED_FACE('',(#1180,#1181),#1318,.F.);
#1343=ADVANCED_FACE('',(#1182,#1183),#1319,.F.);
#1344=ADVANCED_FACE('',(#1184,#1185),#1320,.F.);
#1345=ADVANCED_FACE('',(#1186,#1187),#1321,.F.);
#1346=ADVANCED_FACE('',(#1188,#1189),#1322,.F.);
#1347=ADVANCED_FACE('',(#1190,#1191),#1323,.F.);
#1348=ADVANCED_FACE('',(#1192,#1193),#1324,.T.);
#1349=ADVANCED_FACE('',(#1194,#1195),#268,.T.);
#1350=ADVANCED_FACE('',(#1196,#1197),#269,.T.);
#1351=ADVANCED_FACE('',(#1198,#1199,#1200,#1201,#1202,#1203,#1204,#1205,
#1206,#1207,#1208),#270,.T.);
#1352=ADVANCED_FACE('',(#1209),#271,.F.);
#1353=ADVANCED_FACE('',(#1210),#1325,.T.);
#1354=ADVANCED_FACE('',(#1211),#272,.F.);
#1355=ADVANCED_FACE('',(#1212,#1213),#1326,.T.);
#1356=ADVANCED_FACE('',(#1214),#273,.T.);
#1357=ADVANCED_FACE('',(#1215),#1327,.T.);
#1358=ADVANCED_FACE('',(#1216,#1217),#1328,.T.);
#1359=ADVANCED_FACE('',(#1218),#274,.T.);
#1360=ADVANCED_FACE('',(#1219,#1220,#1221,#1222,#1223),#275,.F.);
#1361=ADVANCED_FACE('',(#1224,#1225),#1329,.T.);
#1362=ADVANCED_FACE('',(#1226,#1227),#276,.T.);
#1363=ADVANCED_FACE('',(#1228,#1229),#1330,.T.);
#1364=ADVANCED_FACE('',(#1230,#1231),#277,.T.);
#1365=ADVANCED_FACE('',(#1232,#1233),#1331,.T.);
#1366=ADVANCED_FACE('',(#1234,#1235),#278,.T.);
#1367=ADVANCED_FACE('',(#1236,#1237),#279,.T.);
#1368=ADVANCED_FACE('',(#1238,#1239),#280,.T.);
#1369=ADVANCED_FACE('',(#1240,#1241),#1332,.T.);
#1370=ADVANCED_FACE('',(#1242,#1243),#281,.T.);
#1371=ADVANCED_FACE('',(#1244,#1245),#1333,.T.);
#1372=ADVANCED_FACE('',(#1246,#1247),#282,.T.);
#1373=ADVANCED_FACE('',(#1248,#1249),#1334,.T.);
#1374=ADVANCED_FACE('',(#1250,#1251),#283,.T.);
#1375=ADVANCED_FACE('',(#1252,#1253),#1335,.T.);
#1376=ADVANCED_FACE('',(#1254,#1255),#1336,.T.);
#1377=ADVANCED_FACE('',(#1256,#1257),#284,.T.);
#1378=ADVANCED_FACE('',(#1258,#1259),#285,.T.);
#1379=ADVANCED_FACE('',(#1260,#1261),#1337,.T.);
#1380=ADVANCED_FACE('',(#1262,#1263),#286,.T.);
#1381=ADVANCED_FACE('',(#1264),#287,.F.);
#1382=ADVANCED_FACE('',(#1265),#288,.F.);
#1383=ADVANCED_FACE('',(#1266),#289,.F.);
#1384=ADVANCED_FACE('',(#1267),#290,.F.);
#1385=ADVANCED_FACE('',(#1268),#291,.F.);
#1386=ADVANCED_FACE('',(#1269),#292,.F.);
#1387=ADVANCED_FACE('',(#1270,#1271),#293,.T.);
#1388=ADVANCED_FACE('',(#1272),#294,.F.);
#1389=ADVANCED_FACE('',(#1273),#295,.F.);
#1390=ADVANCED_FACE('',(#1274),#296,.F.);
#1391=ADVANCED_FACE('',(#1275),#297,.F.);
#1392=ADVANCED_FACE('',(#1276),#298,.F.);
#1393=ADVANCED_FACE('',(#1277),#299,.F.);
#1394=ADVANCED_FACE('',(#1278,#1279),#300,.T.);
#1395=ADVANCED_FACE('',(#1280),#301,.F.);
#1396=ADVANCED_FACE('',(#1281),#302,.F.);
#1397=ADVANCED_FACE('',(#1282),#303,.F.);
#1398=ADVANCED_FACE('',(#1283),#304,.F.);
#1399=ADVANCED_FACE('',(#1284),#305,.F.);
#1400=ADVANCED_FACE('',(#1285),#306,.F.);
#1401=ADVANCED_FACE('',(#1286,#1287),#307,.T.);
#1402=ADVANCED_FACE('',(#1288),#308,.F.);
#1403=ADVANCED_FACE('',(#1289),#309,.F.);
#1404=ADVANCED_FACE('',(#1290),#310,.F.);
#1405=ADVANCED_FACE('',(#1291),#311,.F.);
#1406=ADVANCED_FACE('',(#1292),#312,.F.);
#1407=ADVANCED_FACE('',(#1293),#313,.F.);
#1408=ADVANCED_FACE('',(#1294,#1295),#314,.T.);
#1409=ADVANCED_FACE('',(#1296),#315,.F.);
#1410=ADVANCED_FACE('',(#1297),#316,.F.);
#1411=ADVANCED_FACE('',(#1298),#317,.F.);
#1412=ADVANCED_FACE('',(#1299),#318,.F.);
#1413=ADVANCED_FACE('',(#1300),#319,.F.);
#1414=ADVANCED_FACE('',(#1301),#320,.F.);
#1415=ADVANCED_FACE('',(#1302,#1303),#321,.T.);
#1416=ADVANCED_FACE('',(#1304),#322,.F.);
#1417=ADVANCED_FACE('',(#1305),#323,.F.);
#1418=ADVANCED_FACE('',(#1306),#324,.F.);
#1419=ADVANCED_FACE('',(#1307),#325,.F.);
#1420=ADVANCED_FACE('',(#1308),#326,.F.);
#1421=ADVANCED_FACE('',(#1309),#327,.F.);
#1422=ADVANCED_FACE('',(#1310,#1311),#1338,.F.);
#1423=ADVANCED_FACE('',(#1312,#1313),#1339,.F.);
#1424=ADVANCED_FACE('',(#1314,#1315),#1340,.F.);
#1425=ADVANCED_FACE('',(#1316,#1317),#1341,.F.);
#1426=CLOSED_SHELL('',(#1342,#1343,#1344,#1345,#1346,#1347,#1348,#1349,
#1350,#1351,#1352,#1353,#1354,#1355,#1356,#1357,#1358,#1359,#1360,#1361,
#1362,#1363,#1364,#1365,#1366,#1367,#1368,#1369,#1370,#1371,#1372,#1373,
#1374,#1375,#1376,#1377,#1378,#1379,#1380,#1381,#1382,#1383,#1384,#1385,
#1386,#1387,#1388,#1389,#1390,#1391,#1392,#1393,#1394,#1395,#1396,#1397,
#1398,#1399,#1400,#1401,#1402,#1403,#1404,#1405,#1406,#1407,#1408,#1409,
#1410,#1411,#1412,#1413,#1414,#1415,#1416,#1417,#1418,#1419,#1420,#1421,
#1422,#1423,#1424,#1425));
#1427=STYLED_ITEM('',(#1428),#1435);
#1428=PRESENTATION_STYLE_ASSIGNMENT((#1429));
#1429=SURFACE_STYLE_USAGE(.BOTH.,#1430);
#1430=SURFACE_SIDE_STYLE('',(#1431));
#1431=SURFACE_STYLE_FILL_AREA(#1432);
#1432=FILL_AREA_STYLE('',(#1433));
#1433=FILL_AREA_STYLE_COLOUR('',#1434);
#1434=COLOUR_RGB('',0.917647058823529,0.917647058823529,0.917647058823529);
#1435=MANIFOLD_SOLID_BREP('Part 55',#1426);
#1436=SHAPE_DEFINITION_REPRESENTATION(#2370,#1437);
#1437=SHAPE_REPRESENTATION('Part 55',(#1438),#2365);
#1438=AXIS2_PLACEMENT_3D('',#1971,#1573,#1574);
#1439=AXIS2_PLACEMENT_3D('',#1972,#1575,#1576);
#1440=AXIS2_PLACEMENT_3D('',#1973,#1577,#1578);
#1441=AXIS2_PLACEMENT_3D('',#1975,#1579,#1580);
#1442=AXIS2_PLACEMENT_3D('',#1977,#1581,#1582);
#1443=AXIS2_PLACEMENT_3D('',#1978,#1583,#1584);
#1444=AXIS2_PLACEMENT_3D('',#1980,#1585,#1586);
#1445=AXIS2_PLACEMENT_3D('',#1982,#1587,#1588);
#1446=AXIS2_PLACEMENT_3D('',#1983,#1589,#1590);
#1447=AXIS2_PLACEMENT_3D('',#1985,#1591,#1592);
#1448=AXIS2_PLACEMENT_3D('',#1987,#1593,#1594);
#1449=AXIS2_PLACEMENT_3D('',#1988,#1595,#1596);
#1450=AXIS2_PLACEMENT_3D('',#1990,#1597,#1598);
#1451=AXIS2_PLACEMENT_3D('',#1992,#1599,#1600);
#1452=AXIS2_PLACEMENT_3D('',#1993,#1601,#1602);
#1453=AXIS2_PLACEMENT_3D('',#1995,#1603,#1604);
#1454=AXIS2_PLACEMENT_3D('',#1997,#1605,#1606);
#1455=AXIS2_PLACEMENT_3D('',#1998,#1607,#1608);
#1456=AXIS2_PLACEMENT_3D('',#2000,#1609,#1610);
#1457=AXIS2_PLACEMENT_3D('',#2002,#1611,#1612);
#1458=AXIS2_PLACEMENT_3D('',#2003,#1613,#1614);
#1459=AXIS2_PLACEMENT_3D('',#2005,#1615,#1616);
#1460=AXIS2_PLACEMENT_3D('',#2007,#1617,#1618);
#1461=AXIS2_PLACEMENT_3D('',#2008,#1619,#1620);
#1462=AXIS2_PLACEMENT_3D('',#2009,#1621,#1622);
#1463=AXIS2_PLACEMENT_3D('',#2011,#1623,#1624);
#1464=AXIS2_PLACEMENT_3D('',#2012,#1625,#1626);
#1465=AXIS2_PLACEMENT_3D('',#2014,#1627,#1628);
#1466=AXIS2_PLACEMENT_3D('',#2016,#1629,#1630);
#1467=AXIS2_PLACEMENT_3D('',#2018,#1631,#1632);
#1468=AXIS2_PLACEMENT_3D('',#2095,#1670,#1671);
#1469=AXIS2_PLACEMENT_3D('',#2099,#1673,#1674);
#1470=AXIS2_PLACEMENT_3D('',#2103,#1676,#1677);
#1471=AXIS2_PLACEMENT_3D('',#2107,#1679,#1680);
#1472=AXIS2_PLACEMENT_3D('',#2108,#1681,#1682);
#1473=AXIS2_PLACEMENT_3D('',#2114,#1686,#1687);
#1474=AXIS2_PLACEMENT_3D('',#2115,#1688,#1689);
#1475=AXIS2_PLACEMENT_3D('',#2118,#1691,#1692);
#1476=AXIS2_PLACEMENT_3D('',#2124,#1696,#1697);
#1477=AXIS2_PLACEMENT_3D('',#2125,#1698,#1699);
#1478=AXIS2_PLACEMENT_3D('',#2128,#1701,#1702);
#1479=AXIS2_PLACEMENT_3D('',#2130,#1703,#1704);
#1480=AXIS2_PLACEMENT_3D('',#2136,#1708,#1709);
#1481=AXIS2_PLACEMENT_3D('',#2137,#1710,#1711);
#1482=AXIS2_PLACEMENT_3D('',#2140,#1713,#1714);
#1483=AXIS2_PLACEMENT_3D('',#2143,#1716,#1717);
#1484=AXIS2_PLACEMENT_3D('',#2144,#1718,#1719);
#1485=AXIS2_PLACEMENT_3D('',#2150,#1723,#1724);
#1486=AXIS2_PLACEMENT_3D('',#2151,#1725,#1726);
#1487=AXIS2_PLACEMENT_3D('',#2153,#1727,#1728);
#1488=AXIS2_PLACEMENT_3D('',#2155,#1729,#1730);
#1489=AXIS2_PLACEMENT_3D('',#2157,#1731,#1732);
#1490=AXIS2_PLACEMENT_3D('',#2159,#1733,#1734);
#1491=AXIS2_PLACEMENT_3D('',#2160,#1735,#1736);
#1492=AXIS2_PLACEMENT_3D('',#2161,#1737,#1738);
#1493=AXIS2_PLACEMENT_3D('',#2162,#1739,#1740);
#1494=AXIS2_PLACEMENT_3D('',#2163,#1741,#1742);
#1495=AXIS2_PLACEMENT_3D('',#2164,#1743,#1744);
#1496=AXIS2_PLACEMENT_3D('',#2166,#1745,#1746);
#1497=AXIS2_PLACEMENT_3D('',#2167,#1747,#1748);
#1498=AXIS2_PLACEMENT_3D('',#2169,#1749,#1750);
#1499=AXIS2_PLACEMENT_3D('',#2170,#1751,#1752);
#1500=AXIS2_PLACEMENT_3D('',#2172,#1753,#1754);
#1501=AXIS2_PLACEMENT_3D('',#2173,#1755,#1756);
#1502=AXIS2_PLACEMENT_3D('',#2175,#1757,#1758);
#1503=AXIS2_PLACEMENT_3D('',#2176,#1759,#1760);
#1504=AXIS2_PLACEMENT_3D('',#2178,#1761,#1762);
#1505=AXIS2_PLACEMENT_3D('',#2179,#1763,#1764);
#1506=AXIS2_PLACEMENT_3D('',#2181,#1765,#1766);
#1507=AXIS2_PLACEMENT_3D('',#2182,#1767,#1768);
#1508=AXIS2_PLACEMENT_3D('',#2184,#1769,#1770);
#1509=AXIS2_PLACEMENT_3D('',#2185,#1771,#1772);
#1510=AXIS2_PLACEMENT_3D('',#2187,#1773,#1774);
#1511=AXIS2_PLACEMENT_3D('',#2188,#1775,#1776);
#1512=AXIS2_PLACEMENT_3D('',#2189,#1777,#1778);
#1513=AXIS2_PLACEMENT_3D('',#2191,#1779,#1780);
#1514=AXIS2_PLACEMENT_3D('',#2192,#1781,#1782);
#1515=AXIS2_PLACEMENT_3D('',#2193,#1783,#1784);
#1516=AXIS2_PLACEMENT_3D('',#2195,#1785,#1786);
#1517=AXIS2_PLACEMENT_3D('',#2196,#1787,#1788);
#1518=AXIS2_PLACEMENT_3D('',#2197,#1789,#1790);
#1519=AXIS2_PLACEMENT_3D('',#2199,#1791,#1792);
#1520=AXIS2_PLACEMENT_3D('',#2200,#1793,#1794);
#1521=AXIS2_PLACEMENT_3D('',#2201,#1795,#1796);
#1522=AXIS2_PLACEMENT_3D('',#2203,#1797,#1798);
#1523=AXIS2_PLACEMENT_3D('',#2204,#1799,#1800);
#1524=AXIS2_PLACEMENT_3D('',#2206,#1801,#1802);
#1525=AXIS2_PLACEMENT_3D('',#2207,#1803,#1804);
#1526=AXIS2_PLACEMENT_3D('',#2209,#1805,#1806);
#1527=AXIS2_PLACEMENT_3D('',#2210,#1807,#1808);
#1528=AXIS2_PLACEMENT_3D('',#2223,#1815,#1816);
#1529=AXIS2_PLACEMENT_3D('',#2226,#1819,#1820);
#1530=AXIS2_PLACEMENT_3D('',#2228,#1822,#1823);
#1531=AXIS2_PLACEMENT_3D('',#2230,#1825,#1826);
#1532=AXIS2_PLACEMENT_3D('',#2232,#1828,#1829);
#1533=AXIS2_PLACEMENT_3D('',#2234,#1831,#1832);
#1534=AXIS2_PLACEMENT_3D('',#2235,#1833,#1834);
#1535=AXIS2_PLACEMENT_3D('',#2248,#1841,#1842);
#1536=AXIS2_PLACEMENT_3D('',#2251,#1845,#1846);
#1537=AXIS2_PLACEMENT_3D('',#2253,#1848,#1849);
#1538=AXIS2_PLACEMENT_3D('',#2255,#1851,#1852);
#1539=AXIS2_PLACEMENT_3D('',#2257,#1854,#1855);
#1540=AXIS2_PLACEMENT_3D('',#2259,#1857,#1858);
#1541=AXIS2_PLACEMENT_3D('',#2260,#1859,#1860);
#1542=AXIS2_PLACEMENT_3D('',#2273,#1867,#1868);
#1543=AXIS2_PLACEMENT_3D('',#2276,#1871,#1872);
#1544=AXIS2_PLACEMENT_3D('',#2278,#1874,#1875);
#1545=AXIS2_PLACEMENT_3D('',#2280,#1877,#1878);
#1546=AXIS2_PLACEMENT_3D('',#2282,#1880,#1881);
#1547=AXIS2_PLACEMENT_3D('',#2284,#1883,#1884);
#1548=AXIS2_PLACEMENT_3D('',#2285,#1885,#1886);
#1549=AXIS2_PLACEMENT_3D('',#2298,#1893,#1894);
#1550=AXIS2_PLACEMENT_3D('',#2301,#1897,#1898);
#1551=AXIS2_PLACEMENT_3D('',#2303,#1900,#1901);
#1552=AXIS2_PLACEMENT_3D('',#2305,#1903,#1904);
#1553=AXIS2_PLACEMENT_3D('',#2307,#1906,#1907);
#1554=AXIS2_PLACEMENT_3D('',#2309,#1909,#1910);
#1555=AXIS2_PLACEMENT_3D('',#2310,#1911,#1912);
#1556=AXIS2_PLACEMENT_3D('',#2323,#1919,#1920);
#1557=AXIS2_PLACEMENT_3D('',#2326,#1923,#1924);
#1558=AXIS2_PLACEMENT_3D('',#2328,#1926,#1927);
#1559=AXIS2_PLACEMENT_3D('',#2330,#1929,#1930);
#1560=AXIS2_PLACEMENT_3D('',#2332,#1932,#1933);
#1561=AXIS2_PLACEMENT_3D('',#2334,#1935,#1936);
#1562=AXIS2_PLACEMENT_3D('',#2335,#1937,#1938);
#1563=AXIS2_PLACEMENT_3D('',#2348,#1945,#1946);
#1564=AXIS2_PLACEMENT_3D('',#2351,#1949,#1950);
#1565=AXIS2_PLACEMENT_3D('',#2353,#1952,#1953);
#1566=AXIS2_PLACEMENT_3D('',#2355,#1955,#1956);
#1567=AXIS2_PLACEMENT_3D('',#2357,#1958,#1959);
#1568=AXIS2_PLACEMENT_3D('',#2359,#1961,#1962);
#1569=AXIS2_PLACEMENT_3D('',#2360,#1963,#1964);
#1570=AXIS2_PLACEMENT_3D('',#2361,#1965,#1966);
#1571=AXIS2_PLACEMENT_3D('',#2362,#1967,#1968);
#1572=AXIS2_PLACEMENT_3D('',#2363,#1969,#1970);
#1573=DIRECTION('',(0.,0.,1.));
#1574=DIRECTION('',(1.,0.,0.));
#1575=DIRECTION('',(0.,0.,1.));
#1576=DIRECTION('',(1.,0.,0.));
#1577=DIRECTION('',(0.,0.,1.));
#1578=DIRECTION('',(1.,0.,0.));
#1579=DIRECTION('',(0.,0.,-1.));
#1580=DIRECTION('',(-1.,0.,0.));
#1581=DIRECTION('',(0.,0.,1.));
#1582=DIRECTION('',(1.,0.,0.));
#1583=DIRECTION('',(0.,0.,1.));
#1584=DIRECTION('',(1.,0.,0.));
#1585=DIRECTION('',(0.,0.,-1.));
#1586=DIRECTION('',(-1.,0.,0.));
#1587=DIRECTION('',(0.,0.,1.));
#1588=DIRECTION('',(1.,0.,0.));
#1589=DIRECTION('',(0.,0.,1.));
#1590=DIRECTION('',(1.,0.,0.));
#1591=DIRECTION('',(0.,0.,-1.));
#1592=DIRECTION('',(-1.,0.,0.));
#1593=DIRECTION('',(0.,0.,1.));
#1594=DIRECTION('',(1.,0.,0.));
#1595=DIRECTION('',(0.,0.,1.));
#1596=DIRECTION('',(1.,0.,0.));
#1597=DIRECTION('',(0.,0.,-1.));
#1598=DIRECTION('',(-1.,0.,0.));
#1599=DIRECTION('',(0.,0.,1.));
#1600=DIRECTION('',(1.,0.,0.));
#1601=DIRECTION('',(0.,0.,1.));
#1602=DIRECTION('',(1.,0.,0.));
#1603=DIRECTION('',(0.,0.,-1.));
#1604=DIRECTION('',(-1.,0.,0.));
#1605=DIRECTION('',(0.,0.,1.));
#1606=DIRECTION('',(1.,0.,0.));
#1607=DIRECTION('',(0.,0.,1.));
#1608=DIRECTION('',(1.,0.,0.));
#1609=DIRECTION('',(0.,0.,-1.));
#1610=DIRECTION('',(-1.,0.,0.));
#1611=DIRECTION('',(0.,0.,1.));
#1612=DIRECTION('',(1.,0.,0.));
#1613=DIRECTION('',(0.,0.,1.));
#1614=DIRECTION('',(1.,0.,0.));
#1615=DIRECTION('',(0.,0.,1.));
#1616=DIRECTION('',(1.,0.,0.));
#1617=DIRECTION('',(0.,0.,1.));
#1618=DIRECTION('',(1.,0.,0.));
#1619=DIRECTION('',(0.,0.,1.));
#1620=DIRECTION('',(1.,0.,0.));
#1621=DIRECTION('',(0.,0.,1.));
#1622=DIRECTION('',(1.,0.,0.));
#1623=DIRECTION('',(0.,0.,-1.));
#1624=DIRECTION('',(1.,0.,0.));
#1625=DIRECTION('',(0.,0.,1.));
#1626=DIRECTION('',(1.,0.,0.));
#1627=DIRECTION('',(0.,0.,1.));
#1628=DIRECTION('',(1.,0.,0.));
#1629=DIRECTION('',(0.,0.,1.));
#1630=DIRECTION('',(1.,0.,0.));
#1631=DIRECTION('',(0.,0.,1.));
#1632=DIRECTION('',(1.,0.,0.));
#1633=DIRECTION('',(-0.5,-0.866025403784439,0.));
#1634=DIRECTION('',(0.5,-0.866025403784439,0.));
#1635=DIRECTION('',(1.,5.00771532912388E-16,0.));
#1636=DIRECTION('',(0.5,0.866025403784439,0.));
#1637=DIRECTION('',(-0.5,0.866025403784438,0.));
#1638=DIRECTION('',(-1.,0.,0.));
#1639=DIRECTION('',(-0.5,-0.866025403784439,0.));
#1640=DIRECTION('',(0.5,-0.866025403784439,0.));
#1641=DIRECTION('',(1.,0.,0.));
#1642=DIRECTION('',(0.5,0.866025403784439,0.));
#1643=DIRECTION('',(-0.5,0.866025403784439,0.));
#1644=DIRECTION('',(-1.,0.,0.));
#1645=DIRECTION('',(-0.5,-0.866025403784439,0.));
#1646=DIRECTION('',(0.5,-0.866025403784438,0.));
#1647=DIRECTION('',(1.,0.,0.));
#1648=DIRECTION('',(0.5,0.866025403784439,0.));
#1649=DIRECTION('',(-0.5,0.866025403784439,0.));
#1650=DIRECTION('',(-1.,0.,0.));
#1651=DIRECTION('',(-0.5,-0.866025403784439,0.));
#1652=DIRECTION('',(0.5,-0.866025403784438,0.));
#1653=DIRECTION('',(1.,1.00154306582477E-15,0.));
#1654=DIRECTION('',(0.5,0.866025403784439,0.));
#1655=DIRECTION('',(-0.5,0.866025403784438,0.));
#1656=DIRECTION('',(-1.,-1.00154306582477E-15,0.));
#1657=DIRECTION('',(-0.5,-0.86602540378444,0.));
#1658=DIRECTION('',(0.5,-0.866025403784438,0.));
#1659=DIRECTION('',(1.,1.00154306582477E-15,0.));
#1660=DIRECTION('',(0.5,0.866025403784439,0.));
#1661=DIRECTION('',(-0.5,0.866025403784439,0.));
#1662=DIRECTION('',(-1.,-1.00154306582477E-15,0.));
#1663=DIRECTION('',(-0.5,-0.866025403784439,0.));
#1664=DIRECTION('',(0.5,-0.866025403784438,0.));
#1665=DIRECTION('',(1.,0.,0.));
#1666=DIRECTION('',(0.5,0.866025403784439,0.));
#1667=DIRECTION('',(-0.5,0.866025403784439,0.));
#1668=DIRECTION('',(-1.,0.,0.));
#1669=DIRECTION('',(0.,1.,0.));
#1670=DIRECTION('',(0.,0.,-1.));
#1671=DIRECTION('',(-1.,0.,0.));
#1672=DIRECTION('',(1.,0.,0.));
#1673=DIRECTION('',(0.,0.,-1.));
#1674=DIRECTION('',(-1.,0.,0.));
#1675=DIRECTION('',(0.,1.,0.));
#1676=DIRECTION('',(0.,0.,-1.));
#1677=DIRECTION('',(-1.,0.,0.));
#1678=DIRECTION('',(1.,0.,0.));
#1679=DIRECTION('',(0.,0.,-1.));
#1680=DIRECTION('',(-1.,0.,0.));
#1681=DIRECTION('',(1.,0.,0.));
#1682=DIRECTION('',(0.,0.,-1.));
#1683=DIRECTION('',(0.,1.,0.));
#1684=DIRECTION('',(0.,0.,1.));
#1685=DIRECTION('',(0.,0.,1.));
#1686=DIRECTION('',(0.,0.,1.));
#1687=DIRECTION('',(1.,0.,0.));
#1688=DIRECTION('',(0.,0.,-1.));
#1689=DIRECTION('',(-1.,0.,0.));
#1690=DIRECTION('',(0.,0.,1.));
#1691=DIRECTION('',(0.,-1.,0.));
#1692=DIRECTION('',(0.,0.,-1.));
#1693=DIRECTION('',(1.,0.,0.));
#1694=DIRECTION('',(1.,0.,0.));
#1695=DIRECTION('',(0.,0.,1.));
#1696=DIRECTION('',(0.,0.,1.));
#1697=DIRECTION('',(1.,0.,0.));
#1698=DIRECTION('',(0.,0.,1.));
#1699=DIRECTION('',(1.,0.,0.));
#1700=DIRECTION('',(0.,0.,1.));
#1701=DIRECTION('',(0.,0.,1.));
#1702=DIRECTION('',(1.,0.,0.));
#1703=DIRECTION('',(1.,0.,0.));
#1704=DIRECTION('',(0.,0.,-1.));
#1705=DIRECTION('',(0.,1.,0.));
#1706=DIRECTION('',(0.,0.,1.));
#1707=DIRECTION('',(0.,1.,0.));
#1708=DIRECTION('',(0.,0.,1.));
#1709=DIRECTION('',(1.,0.,0.));
#1710=DIRECTION('',(0.,0.,-1.));
#1711=DIRECTION('',(-1.,0.,0.));
#1712=DIRECTION('',(0.,0.,1.));
#1713=DIRECTION('',(0.,0.,1.));
#1714=DIRECTION('',(1.,0.,0.));
#1715=DIRECTION('',(0.,0.,1.));
#1716=DIRECTION('',(0.,0.,1.));
#1717=DIRECTION('',(1.,0.,0.));
#1718=DIRECTION('',(0.,-1.,0.));
#1719=DIRECTION('',(0.,0.,-1.));
#1720=DIRECTION('',(1.,0.,0.));
#1721=DIRECTION('',(1.,0.,0.));
#1722=DIRECTION('',(1.,0.,0.));
#1723=DIRECTION('',(0.,0.,-1.));
#1724=DIRECTION('',(1.,0.,0.));
#1725=DIRECTION('',(0.,0.,-1.));
#1726=DIRECTION('',(-1.,0.,0.));
#1727=DIRECTION('',(0.,0.,-1.));
#1728=DIRECTION('',(-1.,0.,0.));
#1729=DIRECTION('',(0.,0.,-1.));
#1730=DIRECTION('',(-1.,0.,0.));
#1731=DIRECTION('',(0.,0.,-1.));
#1732=DIRECTION('',(-1.,0.,0.));
#1733=DIRECTION('',(0.,0.,1.));
#1734=DIRECTION('',(1.,0.,0.));
#1735=DIRECTION('',(0.,0.,1.));
#1736=DIRECTION('',(1.,0.,0.));
#1737=DIRECTION('',(0.,0.,1.));
#1738=DIRECTION('',(1.,0.,0.));
#1739=DIRECTION('',(0.,0.,1.));
#1740=DIRECTION('',(1.,0.,0.));
#1741=DIRECTION('',(0.,0.,-1.));
#1742=DIRECTION('',(-1.,0.,0.));
#1743=DIRECTION('',(0.,0.,1.));
#1744=DIRECTION('',(1.,0.,0.));
#1745=DIRECTION('',(0.,0.,1.));
#1746=DIRECTION('',(1.,0.,0.));
#1747=DIRECTION('',(0.,0.,1.));
#1748=DIRECTION('',(1.,0.,0.));
#1749=DIRECTION('',(0.,0.,-1.));
#1750=DIRECTION('',(-1.,0.,0.));
#1751=DIRECTION('',(0.,0.,1.));
#1752=DIRECTION('',(1.,0.,0.));
#1753=DIRECTION('',(0.,0.,1.));
#1754=DIRECTION('',(1.,0.,0.));
#1755=DIRECTION('',(0.,0.,1.));
#1756=DIRECTION('',(1.,0.,0.));
#1757=DIRECTION('',(0.,0.,-1.));
#1758=DIRECTION('',(-1.,0.,0.));
#1759=DIRECTION('',(0.,0.,1.));
#1760=DIRECTION('',(1.,0.,0.));
#1761=DIRECTION('',(0.,0.,1.));
#1762=DIRECTION('',(1.,0.,0.));
#1763=DIRECTION('',(0.,0.,1.));
#1764=DIRECTION('',(1.,0.,0.));
#1765=DIRECTION('',(0.,0.,1.));
#1766=DIRECTION('',(1.,0.,0.));
#1767=DIRECTION('',(0.,0.,1.));
#1768=DIRECTION('',(1.,0.,0.));
#1769=DIRECTION('',(0.,0.,1.));
#1770=DIRECTION('',(1.,0.,0.));
#1771=DIRECTION('',(0.,0.,1.));
#1772=DIRECTION('',(1.,0.,0.));
#1773=DIRECTION('',(0.,0.,1.));
#1774=DIRECTION('',(1.,0.,0.));
#1775=DIRECTION('',(0.,0.,1.));
#1776=DIRECTION('',(1.,0.,0.));
#1777=DIRECTION('',(0.,0.,1.));
#1778=DIRECTION('',(1.,0.,0.));
#1779=DIRECTION('',(0.,0.,1.));
#1780=DIRECTION('',(1.,0.,0.));
#1781=DIRECTION('',(0.,0.,1.));
#1782=DIRECTION('',(1.,0.,0.));
#1783=DIRECTION('',(0.,0.,1.));
#1784=DIRECTION('',(1.,0.,0.));
#1785=DIRECTION('',(0.,0.,1.));
#1786=DIRECTION('',(1.,0.,0.));
#1787=DIRECTION('',(0.,0.,1.));
#1788=DIRECTION('',(1.,0.,0.));
#1789=DIRECTION('',(0.,0.,1.));
#1790=DIRECTION('',(1.,0.,0.));
#1791=DIRECTION('',(0.,0.,1.));
#1792=DIRECTION('',(1.,0.,0.));
#1793=DIRECTION('',(0.,0.,-1.));
#1794=DIRECTION('',(-1.,0.,0.));
#1795=DIRECTION('',(0.,0.,1.));
#1796=DIRECTION('',(1.,0.,0.));
#1797=DIRECTION('',(0.,0.,1.));
#1798=DIRECTION('',(1.,0.,0.));
#1799=DIRECTION('',(0.,0.,1.));
#1800=DIRECTION('',(1.,0.,0.));
#1801=DIRECTION('',(0.,0.,1.));
#1802=DIRECTION('',(1.,0.,0.));
#1803=DIRECTION('',(0.,0.,1.));
#1804=DIRECTION('',(1.,0.,0.));
#1805=DIRECTION('',(0.,0.,1.));
#1806=DIRECTION('',(1.,0.,0.));
#1807=DIRECTION('',(0.,0.,-1.));
#1808=DIRECTION('',(1.,0.,0.));
#1809=DIRECTION('',(-0.5,-0.866025403784439,0.));
#1810=DIRECTION('',(-1.,0.,0.));
#1811=DIRECTION('',(-0.5,0.866025403784439,0.));
#1812=DIRECTION('',(0.5,0.866025403784439,0.));
#1813=DIRECTION('',(1.,0.,0.));
#1814=DIRECTION('',(0.5,-0.866025403784438,0.));
#1815=DIRECTION('',(0.866025403784439,-0.5,0.));
#1816=DIRECTION('',(0.5,0.866025403784439,0.));
#1817=DIRECTION('',(0.,0.,-1.));
#1818=DIRECTION('',(0.,0.,-1.));
#1819=DIRECTION('',(0.,-1.,0.));
#1820=DIRECTION('',(0.,0.,-1.));
#1821=DIRECTION('',(0.,0.,-1.));
#1822=DIRECTION('',(-0.866025403784439,-0.5,0.));
#1823=DIRECTION('',(0.5,-0.866025403784439,0.));
#1824=DIRECTION('',(0.,0.,-1.));
#1825=DIRECTION('',(-0.866025403784439,0.5,0.));
#1826=DIRECTION('',(-0.5,-0.866025403784439,0.));
#1827=DIRECTION('',(0.,0.,-1.));
#1828=DIRECTION('',(0.,1.,0.));
#1829=DIRECTION('',(0.,0.,1.));
#1830=DIRECTION('',(0.,0.,-1.));
#1831=DIRECTION('',(0.866025403784438,0.5,0.));
#1832=DIRECTION('',(-0.5,0.866025403784438,0.));
#1833=DIRECTION('',(0.,0.,-1.));
#1834=DIRECTION('',(1.,0.,0.));
#1835=DIRECTION('',(-0.5,-0.86602540378444,0.));
#1836=DIRECTION('',(-1.,-1.00154306582477E-15,0.));
#1837=DIRECTION('',(-0.5,0.866025403784439,0.));
#1838=DIRECTION('',(0.5,0.866025403784439,0.));
#1839=DIRECTION('',(1.,1.00154306582477E-15,0.));
#1840=DIRECTION('',(0.5,-0.866025403784438,0.));
#1841=DIRECTION('',(0.866025403784439,-0.5,0.));
#1842=DIRECTION('',(0.5,0.866025403784439,0.));
#1843=DIRECTION('',(0.,0.,-1.));
#1844=DIRECTION('',(0.,0.,-1.));
#1845=DIRECTION('',(1.00154306582477E-15,-1.,0.));
#1846=DIRECTION('',(1.,1.00154306582477E-15,0.));
#1847=DIRECTION('',(0.,0.,-1.));
#1848=DIRECTION('',(-0.866025403784439,-0.5,0.));
#1849=DIRECTION('',(0.5,-0.866025403784439,0.));
#1850=DIRECTION('',(0.,0.,-1.));
#1851=DIRECTION('',(-0.866025403784439,0.5,0.));
#1852=DIRECTION('',(-0.5,-0.866025403784439,0.));
#1853=DIRECTION('',(0.,0.,-1.));
#1854=DIRECTION('',(-1.00154306582477E-15,1.,0.));
#1855=DIRECTION('',(-1.,-1.00154306582477E-15,0.));
#1856=DIRECTION('',(0.,0.,-1.));
#1857=DIRECTION('',(0.866025403784438,0.5,0.));
#1858=DIRECTION('',(-0.5,0.866025403784438,0.));
#1859=DIRECTION('',(0.,0.,-1.));
#1860=DIRECTION('',(1.,0.,0.));
#1861=DIRECTION('',(-0.5,-0.866025403784439,0.));
#1862=DIRECTION('',(-1.,-1.00154306582477E-15,0.));
#1863=DIRECTION('',(-0.5,0.866025403784438,0.));
#1864=DIRECTION('',(0.5,0.866025403784439,0.));
#1865=DIRECTION('',(1.,1.00154306582477E-15,0.));
#1866=DIRECTION('',(0.5,-0.866025403784438,0.));
#1867=DIRECTION('',(0.866025403784439,-0.5,0.));
#1868=DIRECTION('',(0.5,0.866025403784439,0.));
#1869=DIRECTION('',(0.,0.,-1.));
#1870=DIRECTION('',(0.,0.,-1.));
#1871=DIRECTION('',(1.00154306582477E-15,-1.,0.));
#1872=DIRECTION('',(1.,1.00154306582477E-15,0.));
#1873=DIRECTION('',(0.,0.,-1.));
#1874=DIRECTION('',(-0.866025403784438,-0.5,0.));
#1875=DIRECTION('',(0.5,-0.866025403784438,0.));
#1876=DIRECTION('',(0.,0.,-1.));
#1877=DIRECTION('',(-0.866025403784439,0.5,0.));
#1878=DIRECTION('',(-0.5,-0.866025403784439,0.));
#1879=DIRECTION('',(0.,0.,-1.));
#1880=DIRECTION('',(-1.00154306582477E-15,1.,0.));
#1881=DIRECTION('',(-1.,-1.00154306582477E-15,0.));
#1882=DIRECTION('',(0.,0.,-1.));
#1883=DIRECTION('',(0.866025403784438,0.5,0.));
#1884=DIRECTION('',(-0.5,0.866025403784438,0.));
#1885=DIRECTION('',(0.,0.,-1.));
#1886=DIRECTION('',(1.,0.,0.));
#1887=DIRECTION('',(-0.5,-0.866025403784439,0.));
#1888=DIRECTION('',(-1.,0.,0.));
#1889=DIRECTION('',(-0.5,0.866025403784439,0.));
#1890=DIRECTION('',(0.5,0.866025403784439,0.));
#1891=DIRECTION('',(1.,0.,0.));
#1892=DIRECTION('',(0.5,-0.866025403784439,0.));
#1893=DIRECTION('',(0.866025403784439,-0.5,0.));
#1894=DIRECTION('',(0.5,0.866025403784439,0.));
#1895=DIRECTION('',(0.,0.,-1.));
#1896=DIRECTION('',(0.,0.,-1.));
#1897=DIRECTION('',(0.,-1.,0.));
#1898=DIRECTION('',(0.,0.,-1.));
#1899=DIRECTION('',(0.,0.,-1.));
#1900=DIRECTION('',(-0.866025403784439,-0.5,0.));
#1901=DIRECTION('',(0.5,-0.866025403784439,0.));
#1902=DIRECTION('',(0.,0.,-1.));
#1903=DIRECTION('',(-0.866025403784439,0.5,0.));
#1904=DIRECTION('',(-0.5,-0.866025403784439,0.));
#1905=DIRECTION('',(0.,0.,-1.));
#1906=DIRECTION('',(0.,1.,0.));
#1907=DIRECTION('',(0.,0.,1.));
#1908=DIRECTION('',(0.,0.,-1.));
#1909=DIRECTION('',(0.866025403784439,0.5,0.));
#1910=DIRECTION('',(-0.5,0.866025403784439,0.));
#1911=DIRECTION('',(0.,0.,-1.));
#1912=DIRECTION('',(1.,0.,0.));
#1913=DIRECTION('',(-0.5,-0.866025403784439,0.));
#1914=DIRECTION('',(-1.,0.,0.));
#1915=DIRECTION('',(-0.5,0.866025403784439,0.));
#1916=DIRECTION('',(0.5,0.866025403784439,0.));
#1917=DIRECTION('',(1.,0.,0.));
#1918=DIRECTION('',(0.5,-0.866025403784438,0.));
#1919=DIRECTION('',(0.866025403784439,-0.5,0.));
#1920=DIRECTION('',(0.5,0.866025403784439,0.));
#1921=DIRECTION('',(0.,0.,-1.));
#1922=DIRECTION('',(0.,0.,-1.));
#1923=DIRECTION('',(0.,-1.,0.));
#1924=DIRECTION('',(0.,0.,-1.));
#1925=DIRECTION('',(0.,0.,-1.));
#1926=DIRECTION('',(-0.866025403784439,-0.5,0.));
#1927=DIRECTION('',(0.5,-0.866025403784439,0.));
#1928=DIRECTION('',(0.,0.,-1.));
#1929=DIRECTION('',(-0.866025403784439,0.5,0.));
#1930=DIRECTION('',(-0.5,-0.866025403784439,0.));
#1931=DIRECTION('',(0.,0.,-1.));
#1932=DIRECTION('',(0.,1.,0.));
#1933=DIRECTION('',(0.,0.,1.));
#1934=DIRECTION('',(0.,0.,-1.));
#1935=DIRECTION('',(0.866025403784438,0.5,0.));
#1936=DIRECTION('',(-0.5,0.866025403784438,0.));
#1937=DIRECTION('',(0.,0.,-1.));
#1938=DIRECTION('',(1.,0.,0.));
#1939=DIRECTION('',(-0.5,-0.866025403784439,0.));
#1940=DIRECTION('',(-1.,0.,0.));
#1941=DIRECTION('',(-0.5,0.866025403784438,0.));
#1942=DIRECTION('',(0.5,0.866025403784439,0.));
#1943=DIRECTION('',(1.,5.00771532912388E-16,0.));
#1944=DIRECTION('',(0.5,-0.866025403784439,0.));
#1945=DIRECTION('',(0.866025403784439,-0.5,0.));
#1946=DIRECTION('',(0.5,0.866025403784439,0.));
#1947=DIRECTION('',(0.,0.,-1.));
#1948=DIRECTION('',(0.,0.,-1.));
#1949=DIRECTION('',(0.,-1.,0.));
#1950=DIRECTION('',(0.,0.,-1.));
#1951=DIRECTION('',(0.,0.,-1.));
#1952=DIRECTION('',(-0.866025403784438,-0.5,0.));
#1953=DIRECTION('',(0.5,-0.866025403784438,0.));
#1954=DIRECTION('',(0.,0.,-1.));
#1955=DIRECTION('',(-0.866025403784439,0.5,0.));
#1956=DIRECTION('',(-0.5,-0.866025403784439,0.));
#1957=DIRECTION('',(0.,0.,-1.));
#1958=DIRECTION('',(-5.00771532912388E-16,1.,0.));
#1959=DIRECTION('',(-1.,-5.00771532912388E-16,0.));
#1960=DIRECTION('',(0.,0.,-1.));
#1961=DIRECTION('',(0.866025403784439,0.5,0.));
#1962=DIRECTION('',(-0.5,0.866025403784439,0.));
#1963=DIRECTION('',(0.,0.,1.));
#1964=DIRECTION('',(1.,0.,0.));
#1965=DIRECTION('',(0.,0.,1.));
#1966=DIRECTION('',(1.,0.,0.));
#1967=DIRECTION('',(0.,0.,1.));
#1968=DIRECTION('',(1.,0.,0.));
#1969=DIRECTION('',(0.,0.,1.));
#1970=DIRECTION('',(1.,0.,0.));
#1971=CARTESIAN_POINT('',(0.,0.,0.));
#1972=CARTESIAN_POINT('',(-0.0375,-0.01,-0.012));
#1973=CARTESIAN_POINT('',(-0.0375,-0.01,0.));
#1974=CARTESIAN_POINT('',(-0.0358,-0.01,0.));
#1975=CARTESIAN_POINT('',(-0.0375,-0.01,-0.0118));
#1976=CARTESIAN_POINT('',(-0.0392,-0.01,-0.0118));
#1977=CARTESIAN_POINT('',(0.0375,0.04,-0.012));
#1978=CARTESIAN_POINT('',(0.0375,0.04,0.));
#1979=CARTESIAN_POINT('',(0.0392,0.04,0.));
#1980=CARTESIAN_POINT('',(0.0375,0.04,-0.0118));
#1981=CARTESIAN_POINT('',(0.0358,0.04,-0.0118));
#1982=CARTESIAN_POINT('',(-0.0025,0.04,-0.012));
#1983=CARTESIAN_POINT('',(-0.0025,0.04,0.));
#1984=CARTESIAN_POINT('',(-0.0008,0.04,0.));
#1985=CARTESIAN_POINT('',(-0.0025,0.04,-0.0118));
#1986=CARTESIAN_POINT('',(-0.0042,0.04,-0.0118));
#1987=CARTESIAN_POINT('',(0.0375,0.01,-0.012));
#1988=CARTESIAN_POINT('',(0.0375,0.01,0.));
#1989=CARTESIAN_POINT('',(0.0392,0.01,0.));
#1990=CARTESIAN_POINT('',(0.0375,0.01,-0.0118));
#1991=CARTESIAN_POINT('',(0.0358,0.01,-0.0118));
#1992=CARTESIAN_POINT('',(0.0275,-0.01,-0.012));
#1993=CARTESIAN_POINT('',(0.0275,-0.01,0.));
#1994=CARTESIAN_POINT('',(0.0292,-0.01,0.));
#1995=CARTESIAN_POINT('',(0.0275,-0.01,-0.0118));
#1996=CARTESIAN_POINT('',(0.0258,-0.01,-0.0118));
#1997=CARTESIAN_POINT('',(-0.0025,-0.01,-0.012));
#1998=CARTESIAN_POINT('',(-0.0025,-0.01,0.));
#1999=CARTESIAN_POINT('',(-0.0008,-0.01,0.));
#2000=CARTESIAN_POINT('',(-0.0025,-0.01,-0.0118));
#2001=CARTESIAN_POINT('',(-0.0042,-0.01,-0.0118));
#2002=CARTESIAN_POINT('',(-0.0375,-0.01,-0.012));
#2003=CARTESIAN_POINT('',(-0.0375,-0.01,-0.008));
#2004=CARTESIAN_POINT('',(-0.0338,-0.01,-0.008));
#2005=CARTESIAN_POINT('',(-0.0375,-0.01,0.));
#2006=CARTESIAN_POINT('',(-0.0338,-0.01,0.));
#2007=CARTESIAN_POINT('',(-0.0375,-0.01,0.));
#2008=CARTESIAN_POINT('',(-0.0375,-0.01,-0.008));
#2009=CARTESIAN_POINT('',(-0.0375,-0.01,-0.008));
#2010=CARTESIAN_POINT('',(-0.0325,-0.01,-0.008));
#2011=CARTESIAN_POINT('',(0.,0.015,-0.0144));
#2012=CARTESIAN_POINT('',(-0.005,0.02,-0.0144));
#2013=CARTESIAN_POINT('',(-0.0031,0.02,-0.0144));
#2014=CARTESIAN_POINT('',(0.005,0.02,-0.0144));
#2015=CARTESIAN_POINT('',(0.0069,0.02,-0.0144));
#2016=CARTESIAN_POINT('',(0.005,0.01,-0.0144));
#2017=CARTESIAN_POINT('',(0.0069,0.01,-0.0144));
#2018=CARTESIAN_POINT('',(-0.005,0.01,-0.0144));
#2019=CARTESIAN_POINT('',(-0.0031,0.01,-0.0144));
#2020=CARTESIAN_POINT('',(-0.0349019237886467,-0.0115,-0.0144));
#2021=CARTESIAN_POINT('',(-0.0340358983848622,-0.01,-0.0144));
#2022=CARTESIAN_POINT('',(-0.0357679491924311,-0.013,-0.0144));
#2023=CARTESIAN_POINT('',(-0.0349019237886467,-0.0085,-0.0144));
#2024=CARTESIAN_POINT('',(-0.0357679491924311,-0.007,-0.0144));
#2025=CARTESIAN_POINT('',(-0.0375,-0.007,-0.0144));
#2026=CARTESIAN_POINT('',(-0.0392320508075688,-0.007,-0.0144));
#2027=CARTESIAN_POINT('',(-0.0400980762113533,-0.0085,-0.0144));
#2028=CARTESIAN_POINT('',(-0.0409641016151377,-0.01,-0.0144));
#2029=CARTESIAN_POINT('',(-0.0400980762113533,-0.0115,-0.0144));
#2030=CARTESIAN_POINT('',(-0.0392320508075689,-0.013,-0.0144));
#2031=CARTESIAN_POINT('',(-0.0375,-0.013,-0.0144));
#2032=CARTESIAN_POINT('',(9.80762113533234E-5,0.0385,-0.0144));
#2033=CARTESIAN_POINT('',(0.000964101615137763,0.04,-0.0144));
#2034=CARTESIAN_POINT('',(-0.000767949192431116,0.037,-0.0144));
#2035=CARTESIAN_POINT('',(9.80762113533228E-5,0.0415,-0.0144));
#2036=CARTESIAN_POINT('',(-0.000767949192431115,0.043,-0.0144));
#2037=CARTESIAN_POINT('',(-0.0025,0.043,-0.0144));
#2038=CARTESIAN_POINT('',(-0.00423205080756888,0.043,-0.0144));
#2039=CARTESIAN_POINT('',(-0.00509807621135331,0.0415,-0.0144));
#2040=CARTESIAN_POINT('',(-0.00596410161513775,0.04,-0.0144));
#2041=CARTESIAN_POINT('',(-0.00509807621135332,0.0385,-0.0144));
#2042=CARTESIAN_POINT('',(-0.00423205080756888,0.037,-0.0144));
#2043=CARTESIAN_POINT('',(-0.0025,0.037,-0.0144));
#2044=CARTESIAN_POINT('',(0.0400980762113533,0.0385,-0.0144));
#2045=CARTESIAN_POINT('',(0.0409641016151377,0.04,-0.0144));
#2046=CARTESIAN_POINT('',(0.0392320508075688,0.037,-0.0144));
#2047=CARTESIAN_POINT('',(0.0400980762113533,0.0415,-0.0144));
#2048=CARTESIAN_POINT('',(0.0392320508075689,0.043,-0.0144));
#2049=CARTESIAN_POINT('',(0.0375,0.043,-0.0144));
#2050=CARTESIAN_POINT('',(0.0357679491924312,0.043,-0.0144));
#2051=CARTESIAN_POINT('',(0.0349019237886467,0.0415,-0.0144));
#2052=CARTESIAN_POINT('',(0.0340358983848622,0.04,-0.0144));
#2053=CARTESIAN_POINT('',(0.0349019237886467,0.0385,-0.0144));
#2054=CARTESIAN_POINT('',(0.0357679491924312,0.037,-0.0144));
#2055=CARTESIAN_POINT('',(0.0375,0.037,-0.0144));
#2056=CARTESIAN_POINT('',(0.0400980762113533,0.0085,-0.0144));
#2057=CARTESIAN_POINT('',(0.0409641016151377,0.01,-0.0144));
#2058=CARTESIAN_POINT('',(0.0392320508075689,0.007,-0.0144));
#2059=CARTESIAN_POINT('',(0.0400980762113533,0.0115,-0.0144));
#2060=CARTESIAN_POINT('',(0.0392320508075688,0.013,-0.0144));
#2061=CARTESIAN_POINT('',(0.0375,0.013,-0.0144));
#2062=CARTESIAN_POINT('',(0.0357679491924311,0.013,-0.0144));
#2063=CARTESIAN_POINT('',(0.0349019237886467,0.0115,-0.0144));
#2064=CARTESIAN_POINT('',(0.0340358983848622,0.01,-0.0144));
#2065=CARTESIAN_POINT('',(0.0349019237886467,0.0085,-0.0144));
#2066=CARTESIAN_POINT('',(0.0357679491924311,0.007,-0.0144));
#2067=CARTESIAN_POINT('',(0.0375,0.007,-0.0144));
#2068=CARTESIAN_POINT('',(0.0300980762113533,-0.0115,-0.0144));
#2069=CARTESIAN_POINT('',(0.0309641016151377,-0.01,-0.0144));
#2070=CARTESIAN_POINT('',(0.0292320508075689,-0.013,-0.0144));
#2071=CARTESIAN_POINT('',(0.0300980762113533,-0.0085,-0.0144));
#2072=CARTESIAN_POINT('',(0.0292320508075689,-0.007,-0.0144));
#2073=CARTESIAN_POINT('',(0.0275,-0.007,-0.0144));
#2074=CARTESIAN_POINT('',(0.0257679491924311,-0.007,-0.0144));
#2075=CARTESIAN_POINT('',(0.0249019237886467,-0.0085,-0.0144));
#2076=CARTESIAN_POINT('',(0.0240358983848622,-0.01,-0.0144));
#2077=CARTESIAN_POINT('',(0.0249019237886467,-0.0115,-0.0144));
#2078=CARTESIAN_POINT('',(0.0257679491924311,-0.013,-0.0144));
#2079=CARTESIAN_POINT('',(0.0275,-0.013,-0.0144));
#2080=CARTESIAN_POINT('',(9.80762113533177E-5,-0.0115,-0.0144));
#2081=CARTESIAN_POINT('',(0.000964101615137757,-0.01,-0.0144));
#2082=CARTESIAN_POINT('',(-0.000767949192431121,-0.013,-0.0144));
#2083=CARTESIAN_POINT('',(9.80762113533153E-5,-0.0085,-0.0144));
#2084=CARTESIAN_POINT('',(-0.000767949192431125,-0.007,-0.0144));
#2085=CARTESIAN_POINT('',(-0.0025,-0.007,-0.0144));
#2086=CARTESIAN_POINT('',(-0.00423205080756887,-0.007,-0.0144));
#2087=CARTESIAN_POINT('',(-0.00509807621135332,-0.0085,-0.0144));
#2088=CARTESIAN_POINT('',(-0.00596410161513775,-0.01,-0.0144));
#2089=CARTESIAN_POINT('',(-0.00509807621135332,-0.0115,-0.0144));
#2090=CARTESIAN_POINT('',(-0.00423205080756888,-0.013,-0.0144));
#2091=CARTESIAN_POINT('',(-0.0025,-0.013,-0.0144));
#2092=CARTESIAN_POINT('',(0.0425,0.015,-0.0144));
#2093=CARTESIAN_POINT('',(0.0425,-0.01,-0.0144));
#2094=CARTESIAN_POINT('',(0.0425,0.04,-0.0144));
#2095=CARTESIAN_POINT('',(0.0375,-0.01,-0.0144));
#2096=CARTESIAN_POINT('',(0.0375,-0.015,-0.0144));
#2097=CARTESIAN_POINT('',(-6.93889390390723E-18,-0.015,-0.0144));
#2098=CARTESIAN_POINT('',(-0.0375,-0.015,-0.0144));
#2099=CARTESIAN_POINT('',(-0.0375,-0.01,-0.0144));
#2100=CARTESIAN_POINT('',(-0.0425,-0.01,-0.0144));
#2101=CARTESIAN_POINT('',(-0.0425,0.015,-0.0144));
#2102=CARTESIAN_POINT('',(-0.0425,0.04,-0.0144));
#2103=CARTESIAN_POINT('',(-0.0375,0.04,-0.0144));
#2104=CARTESIAN_POINT('',(-0.0375,0.045,-0.0144));
#2105=CARTESIAN_POINT('',(-6.93889390390723E-18,0.045,-0.0144));
#2106=CARTESIAN_POINT('',(0.0375,0.045,-0.0144));
#2107=CARTESIAN_POINT('',(0.0375,0.04,-0.0144));
#2108=CARTESIAN_POINT('',(-0.0425,0.015,-0.0144));
#2109=CARTESIAN_POINT('',(-0.0425,0.015,-0.012));
#2110=CARTESIAN_POINT('',(-0.0425,-0.01,-0.012));
#2111=CARTESIAN_POINT('',(-0.0425,0.04,-0.012));
#2112=CARTESIAN_POINT('',(-0.0425,0.04,-0.0144));
#2113=CARTESIAN_POINT('',(-0.0425,-0.01,-0.0144));
#2114=CARTESIAN_POINT('',(-0.0375,0.04,-0.0144));
#2115=CARTESIAN_POINT('',(-0.0375,0.04,-0.012));
#2116=CARTESIAN_POINT('',(-0.0375,0.045,-0.012));
#2117=CARTESIAN_POINT('',(-0.0375,0.045,-0.0144));
#2118=CARTESIAN_POINT('',(-6.93889390390723E-18,0.045,-0.0144));
#2119=CARTESIAN_POINT('',(-6.93889390390723E-18,0.045,-0.012));
#2120=CARTESIAN_POINT('',(-0.0025,0.045,-0.012));
#2121=CARTESIAN_POINT('',(-6.93889390390723E-18,0.045,-0.012));
#2122=CARTESIAN_POINT('',(0.0375,0.045,-0.012));
#2123=CARTESIAN_POINT('',(0.0375,0.045,-0.0144));
#2124=CARTESIAN_POINT('',(0.0375,0.04,-0.0144));
#2125=CARTESIAN_POINT('',(0.0375,0.04,-0.012));
#2126=CARTESIAN_POINT('',(0.0425,0.04,-0.012));
#2127=CARTESIAN_POINT('',(0.0425,0.04,-0.0144));
#2128=CARTESIAN_POINT('',(0.0375,0.04,-0.008));
#2129=CARTESIAN_POINT('',(0.0425,0.04,-0.008));
#2130=CARTESIAN_POINT('',(0.0425,0.015,-0.0144));
#2131=CARTESIAN_POINT('',(0.0425,0.015,-0.012));
#2132=CARTESIAN_POINT('',(0.0425,-0.01,-0.012));
#2133=CARTESIAN_POINT('',(0.0425,0.01,-0.012));
#2134=CARTESIAN_POINT('',(0.0425,-0.01,-0.0144));
#2135=CARTESIAN_POINT('',(0.0425,0.015,-0.012));
#2136=CARTESIAN_POINT('',(0.0375,-0.01,-0.0144));
#2137=CARTESIAN_POINT('',(0.0375,-0.01,-0.012));
#2138=CARTESIAN_POINT('',(0.0375,-0.015,-0.012));
#2139=CARTESIAN_POINT('',(0.0375,-0.015,-0.0144));
#2140=CARTESIAN_POINT('',(-0.0375,-0.01,-0.0144));
#2141=CARTESIAN_POINT('',(-0.0375,-0.015,-0.0144));
#2142=CARTESIAN_POINT('',(-0.0375,-0.015,-0.012));
#2143=CARTESIAN_POINT('',(-0.0375,-0.01,-0.012));
#2144=CARTESIAN_POINT('',(-6.93889390390723E-18,-0.015,-0.0144));
#2145=CARTESIAN_POINT('',(-6.93889390390723E-18,-0.015,-0.012));
#2146=CARTESIAN_POINT('',(-0.0025,-0.015,-0.012));
#2147=CARTESIAN_POINT('',(-6.93889390390723E-18,-0.015,-0.012));
#2148=CARTESIAN_POINT('',(0.0275,-0.015,-0.012));
#2149=CARTESIAN_POINT('',(-6.93889390390723E-18,-0.015,-0.012));
#2150=CARTESIAN_POINT('',(0.,0.015,-0.012));
#2151=CARTESIAN_POINT('',(-0.005,0.02,-0.012));
#2152=CARTESIAN_POINT('',(-0.0069,0.02,-0.012));
#2153=CARTESIAN_POINT('',(0.005,0.02,-0.012));
#2154=CARTESIAN_POINT('',(0.0031,0.02,-0.012));
#2155=CARTESIAN_POINT('',(0.005,0.01,-0.012));
#2156=CARTESIAN_POINT('',(0.0031,0.01,-0.012));
#2157=CARTESIAN_POINT('',(-0.005,0.01,-0.012));
#2158=CARTESIAN_POINT('',(-0.0069,0.01,-0.012));
#2159=CARTESIAN_POINT('',(-0.0025,-0.01,-0.012));
#2160=CARTESIAN_POINT('',(0.0275,-0.01,-0.012));
#2161=CARTESIAN_POINT('',(0.0375,0.01,-0.012));
#2162=CARTESIAN_POINT('',(-0.0025,0.04,-0.012));
#2163=CARTESIAN_POINT('',(0.0275,-0.01,-0.008));
#2164=CARTESIAN_POINT('',(0.0275,-0.01,-0.008));
#2165=CARTESIAN_POINT('',(0.0325,-0.01,-0.008));
#2166=CARTESIAN_POINT('',(0.0275,-0.01,-0.008));
#2167=CARTESIAN_POINT('',(0.0275,-0.01,-0.008));
#2168=CARTESIAN_POINT('',(0.0312,-0.01,-0.008));
#2169=CARTESIAN_POINT('',(0.0375,0.01,-0.008));
#2170=CARTESIAN_POINT('',(0.0375,0.01,-0.008));
#2171=CARTESIAN_POINT('',(0.0425,0.01,-0.008));
#2172=CARTESIAN_POINT('',(0.0375,0.01,-0.008));
#2173=CARTESIAN_POINT('',(0.0375,0.01,-0.008));
#2174=CARTESIAN_POINT('',(0.0412,0.01,-0.008));
#2175=CARTESIAN_POINT('',(-0.0025,0.04,-0.008));
#2176=CARTESIAN_POINT('',(-0.0025,0.04,-0.008));
#2177=CARTESIAN_POINT('',(0.0025,0.04,-0.008));
#2178=CARTESIAN_POINT('',(-0.0025,0.04,-0.008));
#2179=CARTESIAN_POINT('',(-0.0025,0.04,-0.008));
#2180=CARTESIAN_POINT('',(0.0012,0.04,-0.008));
#2181=CARTESIAN_POINT('',(0.0375,0.04,-0.008));
#2182=CARTESIAN_POINT('',(0.0375,0.04,-0.008));
#2183=CARTESIAN_POINT('',(0.0412,0.04,-0.008));
#2184=CARTESIAN_POINT('',(0.0375,0.04,0.));
#2185=CARTESIAN_POINT('',(0.0375,0.04,0.));
#2186=CARTESIAN_POINT('',(0.0412,0.04,0.));
#2187=CARTESIAN_POINT('',(0.0375,0.04,-0.012));
#2188=CARTESIAN_POINT('',(-0.0025,0.04,0.));
#2189=CARTESIAN_POINT('',(-0.0025,0.04,0.));
#2190=CARTESIAN_POINT('',(0.0012,0.04,0.));
#2191=CARTESIAN_POINT('',(-0.0025,0.04,-0.012));
#2192=CARTESIAN_POINT('',(0.0375,0.01,0.));
#2193=CARTESIAN_POINT('',(0.0375,0.01,0.));
#2194=CARTESIAN_POINT('',(0.0412,0.01,0.));
#2195=CARTESIAN_POINT('',(0.0375,0.01,-0.012));
#2196=CARTESIAN_POINT('',(0.0275,-0.01,0.));
#2197=CARTESIAN_POINT('',(0.0275,-0.01,0.));
#2198=CARTESIAN_POINT('',(0.0312,-0.01,0.));
#2199=CARTESIAN_POINT('',(0.0275,-0.01,-0.012));
#2200=CARTESIAN_POINT('',(-0.0025,-0.01,-0.008));
#2201=CARTESIAN_POINT('',(-0.0025,-0.01,-0.008));
#2202=CARTESIAN_POINT('',(0.0025,-0.01,-0.008));
#2203=CARTESIAN_POINT('',(-0.0025,-0.01,-0.008));
#2204=CARTESIAN_POINT('',(-0.0025,-0.01,-0.008));
#2205=CARTESIAN_POINT('',(0.0012,-0.01,-0.008));
#2206=CARTESIAN_POINT('',(-0.0025,-0.01,0.));
#2207=CARTESIAN_POINT('',(-0.0025,-0.01,0.));
#2208=CARTESIAN_POINT('',(0.0012,-0.01,0.));
#2209=CARTESIAN_POINT('',(-0.0025,-0.01,-0.012));
#2210=CARTESIAN_POINT('',(0.,0.015,-0.0118));
#2211=CARTESIAN_POINT('',(9.80762113533177E-5,-0.0115,-0.0118));
#2212=CARTESIAN_POINT('',(0.000964101615137757,-0.01,-0.0118));
#2213=CARTESIAN_POINT('',(-0.000767949192431121,-0.013,-0.0118));
#2214=CARTESIAN_POINT('',(-0.0025,-0.013,-0.0118));
#2215=CARTESIAN_POINT('',(-0.00423205080756888,-0.013,-0.0118));
#2216=CARTESIAN_POINT('',(-0.00509807621135332,-0.0115,-0.0118));
#2217=CARTESIAN_POINT('',(-0.00596410161513775,-0.01,-0.0118));
#2218=CARTESIAN_POINT('',(-0.00509807621135332,-0.0085,-0.0118));
#2219=CARTESIAN_POINT('',(-0.00423205080756887,-0.007,-0.0118));
#2220=CARTESIAN_POINT('',(-0.0025,-0.007,-0.0118));
#2221=CARTESIAN_POINT('',(-0.000767949192431124,-0.007,-0.0118));
#2222=CARTESIAN_POINT('',(9.80762113533153E-5,-0.0085,-0.0118));
#2223=CARTESIAN_POINT('',(9.80762113533177E-5,-0.0115,-0.0118));
#2224=CARTESIAN_POINT('',(-0.000767949192431121,-0.013,-0.0118));
#2225=CARTESIAN_POINT('',(0.000964101615137757,-0.01,-0.0118));
#2226=CARTESIAN_POINT('',(-0.0025,-0.013,-0.0118));
#2227=CARTESIAN_POINT('',(-0.00423205080756888,-0.013,-0.0118));
#2228=CARTESIAN_POINT('',(-0.00509807621135332,-0.0115,-0.0118));
#2229=CARTESIAN_POINT('',(-0.00596410161513775,-0.01,-0.0118));
#2230=CARTESIAN_POINT('',(-0.00509807621135332,-0.0085,-0.0118));
#2231=CARTESIAN_POINT('',(-0.00423205080756887,-0.007,-0.0118));
#2232=CARTESIAN_POINT('',(-0.0025,-0.007,-0.0118));
#2233=CARTESIAN_POINT('',(-0.000767949192431124,-0.007,-0.0118));
#2234=CARTESIAN_POINT('',(9.80762113533153E-5,-0.0085,-0.0118));
#2235=CARTESIAN_POINT('',(0.,0.015,-0.0118));
#2236=CARTESIAN_POINT('',(0.0300980762113533,-0.0115,-0.0118));
#2237=CARTESIAN_POINT('',(0.0309641016151377,-0.01,-0.0118));
#2238=CARTESIAN_POINT('',(0.0292320508075689,-0.013,-0.0118));
#2239=CARTESIAN_POINT('',(0.0275,-0.013,-0.0118));
#2240=CARTESIAN_POINT('',(0.0257679491924311,-0.013,-0.0118));
#2241=CARTESIAN_POINT('',(0.0249019237886467,-0.0115,-0.0118));
#2242=CARTESIAN_POINT('',(0.0240358983848622,-0.01,-0.0118));
#2243=CARTESIAN_POINT('',(0.0249019237886467,-0.0085,-0.0118));
#2244=CARTESIAN_POINT('',(0.0257679491924311,-0.007,-0.0118));
#2245=CARTESIAN_POINT('',(0.0275,-0.007,-0.0118));
#2246=CARTESIAN_POINT('',(0.0292320508075689,-0.007,-0.0118));
#2247=CARTESIAN_POINT('',(0.0300980762113533,-0.0085,-0.0118));
#2248=CARTESIAN_POINT('',(0.0300980762113533,-0.0115,-0.0118));
#2249=CARTESIAN_POINT('',(0.0292320508075689,-0.013,-0.0118));
#2250=CARTESIAN_POINT('',(0.0309641016151377,-0.01,-0.0118));
#2251=CARTESIAN_POINT('',(0.0275,-0.013,-0.0118));
#2252=CARTESIAN_POINT('',(0.0257679491924311,-0.013,-0.0118));
#2253=CARTESIAN_POINT('',(0.0249019237886467,-0.0115,-0.0118));
#2254=CARTESIAN_POINT('',(0.0240358983848622,-0.01,-0.0118));
#2255=CARTESIAN_POINT('',(0.0249019237886467,-0.0085,-0.0118));
#2256=CARTESIAN_POINT('',(0.0257679491924311,-0.007,-0.0118));
#2257=CARTESIAN_POINT('',(0.0275,-0.007,-0.0118));
#2258=CARTESIAN_POINT('',(0.0292320508075689,-0.007,-0.0118));
#2259=CARTESIAN_POINT('',(0.0300980762113533,-0.0085,-0.0118));
#2260=CARTESIAN_POINT('',(0.,0.015,-0.0118));
#2261=CARTESIAN_POINT('',(0.0400980762113533,0.0085,-0.0118));
#2262=CARTESIAN_POINT('',(0.0409641016151377,0.01,-0.0118));
#2263=CARTESIAN_POINT('',(0.0392320508075689,0.007,-0.0118));
#2264=CARTESIAN_POINT('',(0.0375,0.007,-0.0118));
#2265=CARTESIAN_POINT('',(0.0357679491924311,0.007,-0.0118));
#2266=CARTESIAN_POINT('',(0.0349019237886467,0.0085,-0.0118));
#2267=CARTESIAN_POINT('',(0.0340358983848622,0.01,-0.0118));
#2268=CARTESIAN_POINT('',(0.0349019237886467,0.0115,-0.0118));
#2269=CARTESIAN_POINT('',(0.0357679491924311,0.013,-0.0118));
#2270=CARTESIAN_POINT('',(0.0375,0.013,-0.0118));
#2271=CARTESIAN_POINT('',(0.0392320508075688,0.013,-0.0118));
#2272=CARTESIAN_POINT('',(0.0400980762113533,0.0115,-0.0118));
#2273=CARTESIAN_POINT('',(0.0400980762113533,0.0085,-0.0118));
#2274=CARTESIAN_POINT('',(0.0392320508075689,0.007,-0.0118));
#2275=CARTESIAN_POINT('',(0.0409641016151377,0.01,-0.0118));
#2276=CARTESIAN_POINT('',(0.0375,0.007,-0.0118));
#2277=CARTESIAN_POINT('',(0.0357679491924311,0.007,-0.0118));
#2278=CARTESIAN_POINT('',(0.0349019237886467,0.0085,-0.0118));
#2279=CARTESIAN_POINT('',(0.0340358983848622,0.01,-0.0118));
#2280=CARTESIAN_POINT('',(0.0349019237886467,0.0115,-0.0118));
#2281=CARTESIAN_POINT('',(0.0357679491924311,0.013,-0.0118));
#2282=CARTESIAN_POINT('',(0.0375,0.013,-0.0118));
#2283=CARTESIAN_POINT('',(0.0392320508075688,0.013,-0.0118));
#2284=CARTESIAN_POINT('',(0.0400980762113533,0.0115,-0.0118));
#2285=CARTESIAN_POINT('',(0.,0.015,-0.0118));
#2286=CARTESIAN_POINT('',(9.80762113533234E-5,0.0385,-0.0118));
#2287=CARTESIAN_POINT('',(0.000964101615137763,0.04,-0.0118));
#2288=CARTESIAN_POINT('',(-0.000767949192431116,0.037,-0.0118));
#2289=CARTESIAN_POINT('',(-0.0025,0.037,-0.0118));
#2290=CARTESIAN_POINT('',(-0.00423205080756888,0.037,-0.0118));
#2291=CARTESIAN_POINT('',(-0.00509807621135332,0.0385,-0.0118));
#2292=CARTESIAN_POINT('',(-0.00596410161513775,0.04,-0.0118));
#2293=CARTESIAN_POINT('',(-0.00509807621135331,0.0415,-0.0118));
#2294=CARTESIAN_POINT('',(-0.00423205080756888,0.043,-0.0118));
#2295=CARTESIAN_POINT('',(-0.0025,0.043,-0.0118));
#2296=CARTESIAN_POINT('',(-0.000767949192431116,0.043,-0.0118));
#2297=CARTESIAN_POINT('',(9.80762113533228E-5,0.0415,-0.0118));
#2298=CARTESIAN_POINT('',(9.80762113533234E-5,0.0385,-0.0118));
#2299=CARTESIAN_POINT('',(-0.000767949192431116,0.037,-0.0118));
#2300=CARTESIAN_POINT('',(0.000964101615137763,0.04,-0.0118));
#2301=CARTESIAN_POINT('',(-0.0025,0.037,-0.0118));
#2302=CARTESIAN_POINT('',(-0.00423205080756888,0.037,-0.0118));
#2303=CARTESIAN_POINT('',(-0.00509807621135332,0.0385,-0.0118));
#2304=CARTESIAN_POINT('',(-0.00596410161513775,0.04,-0.0118));
#2305=CARTESIAN_POINT('',(-0.00509807621135331,0.0415,-0.0118));
#2306=CARTESIAN_POINT('',(-0.00423205080756888,0.043,-0.0118));
#2307=CARTESIAN_POINT('',(-0.0025,0.043,-0.0118));
#2308=CARTESIAN_POINT('',(-0.000767949192431116,0.043,-0.0118));
#2309=CARTESIAN_POINT('',(9.80762113533228E-5,0.0415,-0.0118));
#2310=CARTESIAN_POINT('',(0.,0.015,-0.0118));
#2311=CARTESIAN_POINT('',(0.0400980762113533,0.0385,-0.0118));
#2312=CARTESIAN_POINT('',(0.0409641016151377,0.04,-0.0118));
#2313=CARTESIAN_POINT('',(0.0392320508075688,0.037,-0.0118));
#2314=CARTESIAN_POINT('',(0.0375,0.037,-0.0118));
#2315=CARTESIAN_POINT('',(0.0357679491924312,0.037,-0.0118));
#2316=CARTESIAN_POINT('',(0.0349019237886467,0.0385,-0.0118));
#2317=CARTESIAN_POINT('',(0.0340358983848622,0.04,-0.0118));
#2318=CARTESIAN_POINT('',(0.0349019237886467,0.0415,-0.0118));
#2319=CARTESIAN_POINT('',(0.0357679491924312,0.043,-0.0118));
#2320=CARTESIAN_POINT('',(0.0375,0.043,-0.0118));
#2321=CARTESIAN_POINT('',(0.0392320508075689,0.043,-0.0118));
#2322=CARTESIAN_POINT('',(0.0400980762113533,0.0415,-0.0118));
#2323=CARTESIAN_POINT('',(0.0400980762113533,0.0385,-0.0118));
#2324=CARTESIAN_POINT('',(0.0392320508075688,0.037,-0.0118));
#2325=CARTESIAN_POINT('',(0.0409641016151377,0.04,-0.0118));
#2326=CARTESIAN_POINT('',(0.0375,0.037,-0.0118));
#2327=CARTESIAN_POINT('',(0.0357679491924312,0.037,-0.0118));
#2328=CARTESIAN_POINT('',(0.0349019237886467,0.0385,-0.0118));
#2329=CARTESIAN_POINT('',(0.0340358983848622,0.04,-0.0118));
#2330=CARTESIAN_POINT('',(0.0349019237886467,0.0415,-0.0118));
#2331=CARTESIAN_POINT('',(0.0357679491924312,0.043,-0.0118));
#2332=CARTESIAN_POINT('',(0.0375,0.043,-0.0118));
#2333=CARTESIAN_POINT('',(0.0392320508075689,0.043,-0.0118));
#2334=CARTESIAN_POINT('',(0.0400980762113533,0.0415,-0.0118));
#2335=CARTESIAN_POINT('',(0.,0.015,-0.0118));
#2336=CARTESIAN_POINT('',(-0.0349019237886467,-0.0115,-0.0118));
#2337=CARTESIAN_POINT('',(-0.0340358983848622,-0.01,-0.0118));
#2338=CARTESIAN_POINT('',(-0.0357679491924311,-0.013,-0.0118));
#2339=CARTESIAN_POINT('',(-0.0375,-0.013,-0.0118));
#2340=CARTESIAN_POINT('',(-0.0392320508075689,-0.013,-0.0118));
#2341=CARTESIAN_POINT('',(-0.0400980762113533,-0.0115,-0.0118));
#2342=CARTESIAN_POINT('',(-0.0409641016151377,-0.01,-0.0118));
#2343=CARTESIAN_POINT('',(-0.0400980762113533,-0.0085,-0.0118));
#2344=CARTESIAN_POINT('',(-0.0392320508075688,-0.007,-0.0118));
#2345=CARTESIAN_POINT('',(-0.0375,-0.007,-0.0118));
#2346=CARTESIAN_POINT('',(-0.0357679491924311,-0.007,-0.0118));
#2347=CARTESIAN_POINT('',(-0.0349019237886467,-0.0085,-0.0118));
#2348=CARTESIAN_POINT('',(-0.0349019237886467,-0.0115,-0.0118));
#2349=CARTESIAN_POINT('',(-0.0357679491924311,-0.013,-0.0118));
#2350=CARTESIAN_POINT('',(-0.0340358983848622,-0.01,-0.0118));
#2351=CARTESIAN_POINT('',(-0.0375,-0.013,-0.0118));
#2352=CARTESIAN_POINT('',(-0.0392320508075689,-0.013,-0.0118));
#2353=CARTESIAN_POINT('',(-0.0400980762113533,-0.0115,-0.0118));
#2354=CARTESIAN_POINT('',(-0.0409641016151377,-0.01,-0.0118));
#2355=CARTESIAN_POINT('',(-0.0400980762113533,-0.0085,-0.0118));
#2356=CARTESIAN_POINT('',(-0.0392320508075688,-0.007,-0.0118));
#2357=CARTESIAN_POINT('',(-0.0375,-0.007,-0.0118));
#2358=CARTESIAN_POINT('',(-0.0357679491924311,-0.007,-0.0118));
#2359=CARTESIAN_POINT('',(-0.0349019237886467,-0.0085,-0.0118));
#2360=CARTESIAN_POINT('',(-0.005,0.01,-0.0144));
#2361=CARTESIAN_POINT('',(0.005,0.01,-0.0144));
#2362=CARTESIAN_POINT('',(0.005,0.02,-0.0144));
#2363=CARTESIAN_POINT('',(-0.005,0.02,-0.0144));
#2364=MECHANICAL_DESIGN_GEOMETRIC_PRESENTATION_REPRESENTATION('',(#1427),
#2365);
#2365=(
GEOMETRIC_REPRESENTATION_CONTEXT(3)
GLOBAL_UNCERTAINTY_ASSIGNED_CONTEXT((#2366))
GLOBAL_UNIT_ASSIGNED_CONTEXT((#2369,#2368,#2367))
REPRESENTATION_CONTEXT('Part 55','TOP_LEVEL_ASSEMBLY_PART')
);
#2366=UNCERTAINTY_MEASURE_WITH_UNIT(LENGTH_MEASURE(1.E-8),#2369,
'DISTANCE_ACCURACY_VALUE','Maximum Tolerance applied to model');
#2367=(
NAMED_UNIT(*)
SI_UNIT($,.STERADIAN.)
SOLID_ANGLE_UNIT()
);
#2368=(
NAMED_UNIT(*)
PLANE_ANGLE_UNIT()
SI_UNIT($,.RADIAN.)
);
#2369=(
LENGTH_UNIT()
NAMED_UNIT(*)
SI_UNIT($,.METRE.)
);
#2370=PRODUCT_DEFINITION_SHAPE('','',#2371);
#2371=PRODUCT_DEFINITION('','',#2373,#2372);
#2372=PRODUCT_DEFINITION_CONTEXT('',#2379,'design');
#2373=PRODUCT_DEFINITION_FORMATION_WITH_SPECIFIED_SOURCE('','',#2375,
 .NOT_KNOWN.);
#2374=PRODUCT_RELATED_PRODUCT_CATEGORY('','',(#2375));
#2375=PRODUCT('Part 55','Part 55','Part 55',(#2377));
#2376=PRODUCT_CATEGORY('','');
#2377=PRODUCT_CONTEXT('',#2379,'mechanical');
#2378=APPLICATION_PROTOCOL_DEFINITION('international standard',
'ap242_managed_model_based_3d_engineering',2020,#2379);
#2379=APPLICATION_CONTEXT('managed model based 3d engineering');
ENDSEC;
END-ISO-10303-21;
